<?xml version="1.0" encoding="UTF-8" standalone="no"?>
<!-- Created with Inkscape (http://www.inkscape.org/) -->

<svg
   xmlns:dc="http://purl.org/dc/elements/1.1/"
   xmlns:cc="http://creativecommons.org/ns#"
   xmlns:rdf="http://www.w3.org/1999/02/22-rdf-syntax-ns#"
   xmlns:svg="http://www.w3.org/2000/svg"
   xmlns="http://www.w3.org/2000/svg"
   xmlns:sodipodi="http://sodipodi.sourceforge.net/DTD/sodipodi-0.dtd"
   xmlns:inkscape="http://www.inkscape.org/namespaces/inkscape"
   width="326.53882"
   height="394.36859"
   id="svg3088"
   version="1.1"
   inkscape:version="0.48.2 r9819"
   sodipodi:docname="redMenFilling.svg">
  <defs
     id="defs3090" />
  <sodipodi:namedview
     id="base"
     pagecolor="#ffffff"
     bordercolor="#666666"
     borderopacity="1.0"
     inkscape:pageopacity="0.0"
     inkscape:pageshadow="2"
     inkscape:zoom="1.979899"
     inkscape:cx="163.26941"
     inkscape:cy="197.18427"
     inkscape:document-units="px"
     inkscape:current-layer="layer1"
     showgrid="false"
     fit-margin-top="0"
     fit-margin-left="0"
     fit-margin-right="0"
     fit-margin-bottom="0"
     inkscape:window-width="1680"
     inkscape:window-height="966"
     inkscape:window-x="0"
     inkscape:window-y="55"
     inkscape:window-maximized="0" />
  <metadata
     id="metadata3093">
    <rdf:RDF>
      <cc:Work
         rdf:about="">
        <dc:format>image/svg+xml</dc:format>
        <dc:type
           rdf:resource="http://purl.org/dc/dcmitype/StillImage" />
        <dc:title></dc:title>
      </cc:Work>
    </rdf:RDF>
  </metadata>
  <g
     inkscape:label="Layer 1"
     inkscape:groupmode="layer"
     id="layer1"
     transform="translate(-211.73059,-335.17785)">
    <path
       style="fill:#000000"
       d="m 362.93624,729.26644 c -20.38216,-0.44655 -22.9262,-0.68706 -23.79969,-2.25 -0.82472,-1.47566 -2.47071,-1.75 -10.49978,-1.75 -11.83623,0 -12.8175,-0.69732 -12.15879,-8.64043 0.47433,-5.71985 1.63604,-7.31674 5.34282,-7.34426 1.1346,-0.008 3.35629,-1.36531 4.93709,-3.01531 1.5808,-1.65 3.43467,-3 4.1197,-3 0.68504,0 1.53117,-0.9 1.8803,-2 0.34913,-1.1 1.07124,-2 1.60469,-2 0.53346,0 2.88234,-1.9125 5.21975,-4.25 2.3374,-2.3375 5.68585,-5.375 7.44099,-6.75 1.75515,-1.375 3.35828,-3.625 3.56252,-5 0.20424,-1.375 1.00151,-2.5 1.7717,-2.5 1.96557,0 4.87743,-3.39615 4.26971,-4.97984 -0.27814,-0.72482 -0.025,-1.61493 0.56247,-1.97803 0.58749,-0.36309 1.06817,-0.13482 1.06817,0.50726 0,1.51166 4.97486,0.3284 6.43823,-1.53133 0.58398,-0.74214 1.96177,-1.5044 3.06177,-1.69392 2.86213,-0.49311 3.31432,-4.79843 0.57911,-5.5137 -1.27007,-0.33213 -2.09149,-1.37386 -2.11091,-2.67707 -0.0412,-2.76663 -2.24393,-5.63337 -4.32844,-5.63337 -0.90187,0 -1.63976,-0.40598 -1.63976,-0.90217 0,-0.4962 -1.32771,-1.36502 -2.95046,-1.93072 -1.62275,-0.56569 -3.74776,-1.95971 -4.72224,-3.09782 -0.97448,-1.13811 -2.14059,-2.06929 -2.59135,-2.06929 -0.45077,0 -1.78561,-0.9 -2.96632,-2 -1.18072,-1.1 -2.72107,-2 -3.42301,-2 -0.70194,0 -1.75792,-0.9 -2.34662,-2 -0.95105,-1.77705 -2.09759,-2.00073 -10.28518,-2.00659 -7.51378,-0.005 -9.76861,-0.37335 -12.21482,-1.99341 -2.33765,-1.54817 -4.69803,-1.98828 -10.69098,-1.99341 -4.23004,-0.004 -7.9691,-0.45659 -8.30902,-1.00659 -0.34096,-0.55169 -4.82405,-1 -10,-1 -5.17595,0 -9.65904,-0.44831 -10,-1 -0.33992,-0.55 -2.13433,-1 -3.98759,-1 -1.85325,0 -4.04455,-0.675 -4.86955,-1.5 -1.95912,-1.95912 -2.73545,-1.90486 -1.95213,0.13645 0.43381,1.13049 0.19222,1.48369 -0.78138,1.14237 -0.77514,-0.27174 -1.34685,-1.23314 -1.27046,-2.13645 0.10335,-1.22215 -0.7131,-1.64237 -3.19098,-1.64237 -1.83143,0 -3.60799,-0.45 -3.94791,-1 -0.33992,-0.55 -1.98492,-1 -3.65557,-1 -2.11975,0 -4.41056,-1.20859 -7.58177,-4 -4.83326,-4.25441 -9.18004,-5.77617 -5.78576,-2.02553 0.98278,1.08596 2.62752,2.24128 3.65498,2.56739 1.02747,0.3261 1.86812,1.31259 1.86812,2.19219 0,0.87961 0.2961,1.30319 0.65799,0.94129 1.00729,-1.00729 3.34201,1.34263 3.34201,3.36377 0,0.98682 -0.5625,2.0212 -1.25,2.29861 -0.6875,0.27741 -0.2375,0.53991 1,0.58333 1.2696,0.0446 2.25,0.71495 2.25,1.53855 0,0.80278 1.8,3.29596 4,5.5404 2.2,2.24444 4,4.63091 4,5.30327 0,0.67236 0.97569,1.66668 2.1682,2.2096 1.19252,0.54292 2.47258,1.66213 2.84458,2.48713 0.372,0.825 1.19631,2.50639 1.83179,3.73643 1.2846,2.48646 1.55775,16.08246 0.36093,17.9653 -0.45181,0.7108 -3.81311,1.32359 -8.22793,1.5 -7.39685,0.29558 -7.46981,0.32528 -8.1025,3.29827 l -0.63844,3 -0.11832,-2.75 c -0.0742,-1.72519 -0.6773,-2.75 -1.61831,-2.75 -0.825,0 -1.5,-0.43307 -1.5,-0.96237 0,-0.58005 -2.58228,-0.72124 -6.5,-0.3554 -6.15169,0.57445 -6.5,0.49308 -6.5,-1.51857 0,-2.85975 -6.27819,-4.2188 -8.62905,-1.86795 -0.37781,0.37782 -1.40334,0.12834 -2.27894,-0.55439 -1.42353,-1.10996 -1.44008,-1.04806 -0.15631,0.5849 1.19356,1.51822 1.20886,1.9664 0.0907,2.65748 -1.85949,1.14923 -3.75717,0.24502 -3.75447,-1.78895 0.005,-3.60565 -0.3523,-4.27481 -2.77192,-5.19475 -1.375,-0.52277 -2.5,-1.58785 -2.5,-2.36684 0,-0.77899 -1.2375,-1.76213 -2.75,-2.18476 -1.97252,-0.55116 -2.27091,-0.88224 -1.05543,-1.17105 1.01052,-0.24011 1.46707,-0.99554 1.13098,-1.87137 -0.5045,-1.31469 4.1082,-6.40148 5.80782,-6.40476 0.34835,-6.7e-4 0.86872,-0.90122 1.15638,-2.00122 0.85205,-3.25825 3.71026,-2.48789 3.71026,1 0,2.05047 0.49344,3 1.55902,3 0.93567,0 1.26991,-0.46778 0.83595,-1.16994 -0.49597,-0.8025 -0.16259,-0.95487 1.0615,-0.48514 1.42798,0.54797 1.67921,0.28193 1.25731,-1.33144 -0.29,-1.10893 -0.11923,-1.76406 0.37948,-1.45584 0.49871,0.30822 0.90674,1.43384 0.90674,2.50138 0,1.53214 0.70037,1.94098 3.32503,1.94098 1.87037,0 4.16719,0.80746 5.25,1.84565 1.72319,1.65219 2.15975,1.69324 4.16478,0.39166 1.98713,-1.28995 2.30944,-1.27253 2.85699,0.15436 0.33945,0.88458 1.21607,1.60833 1.94804,1.60833 2.66657,0 0.91517,-4.08251 -4.06585,-9.47747 -4.33357,-4.69369 -5.62938,-5.52253 -8.63392,-5.52253 -3.7148,0 -6.84509,-2.39875 -6.84509,-5.24541 0,-0.87336 -0.5625,-1.79163 -1.25,-2.0406 -0.98831,-0.35791 -0.97267,-0.92094 0.0747,-2.68938 1.15986,-1.95838 1.06654,-2.51148 -0.75,-4.4451 -1.14109,-1.21463 -2.0747,-2.74191 -2.0747,-3.39396 0,-0.65205 -0.66088,-1.18555 -1.46862,-1.18555 -0.89459,0 -1.24364,-0.58629 -0.89301,-1.5 0.33636,-0.87653 0.0116,-1.50636 -0.78139,-1.51531 -1.12405,-0.0127 -1.11974,-0.16558 0.0251,-0.89068 1.08574,-0.68764 0.9249,-1.02048 -0.75,-1.55207 -1.17267,-0.3722 -2.13213,-1.04391 -2.13213,-1.4927 0,-0.44879 -0.90062,-1.05149 -2.00138,-1.33935 -1.10076,-0.28785 -1.7492,-0.11534 -1.44098,0.38337 0.30822,0.49871 -0.051,0.90674 -0.7982,0.90674 -1.78902,0 -2.38006,-13.54727 -0.68039,-15.59525 1.39059,-1.67556 15.96782,-1.98522 18.92601,-0.40205 1.25242,0.67028 2.07903,0.67028 2.49328,0 0.34084,-0.55148 1.38065,-0.99581 2.31069,-0.98739 1.45727,0.0132 1.48367,0.14929 0.19098,0.98469 -1,0.64625 -1.08333,0.97448 -0.25,0.98469 2.09705,0.0257 2.68175,0.17601 4.52801,1.1641 0.9779,0.52335 1.53978,1.33701 1.24862,1.80812 -0.29117,0.47112 0.43852,0.60346 1.62153,0.29409 1.40627,-0.36774 2.60763,0.0621 3.47012,1.24165 1.09604,1.49892 1.58142,1.5865 2.86922,0.51772 1.2787,-1.06122 1.86684,-0.99968 3.36,0.35162 0.99549,0.9009 2.53549,1.63801 3.42222,1.63801 0.88674,0 1.89036,0.45 2.23028,1 0.33992,0.55 1.37898,0.96837 2.30902,0.92971 1.37849,-0.0573 1.32139,-0.2291 -0.30902,-0.92971 -1.67602,-0.72021 -1.47353,-0.87082 1.25,-0.92971 1.7875,-0.0387 3.25,0.37971 3.25,0.92971 0,1.64751 3.18101,1.12976 4.60795,-0.75 0.75254,-0.99134 1.34223,-4.35588 1.36025,-7.76098 0.0285,-5.3943 0.3288,-6.2563 2.92682,-8.40231 2.83268,-2.33983 2.89796,-2.61406 3.03128,-12.73488 0.11386,-8.64284 0.49373,-10.96081 2.31033,-14.09769 1.19573,-2.06478 2.61566,-4.05762 3.1554,-4.42853 0.54061,-0.37152 1.07327,-6.65913 1.18602,-14 0.25068,-16.31999 1.4121,-30.12841 2.59932,-30.90401 0.48695,-0.31812 1.33524,-4.81812 1.88509,-10 0.54985,-5.18188 1.41403,-10.3216 1.9204,-11.4216 0.50637,-1.1 1.13517,-4.25 1.39734,-7 0.70765,-7.42279 1.76171,-11.91367 2.97992,-12.69621 0.69282,-0.44503 0.46466,-0.9338 -0.6324,-1.35478 -0.94393,-0.36222 -1.46272,-1.06877 -1.15288,-1.57011 0.30985,-0.50134 0.98226,-0.65263 1.49426,-0.33619 0.54974,0.33975 0.9309,-3.33869 0.9309,-8.98369 0,-5.4477 0.41334,-9.55902 0.96104,-9.55902 0.52858,0 1.88106,-0.98752 3.00552,-2.19448 1.5849,-1.70119 2.31298,-1.92598 3.23896,-1 1.7384,1.7384 2.79448,1.46548 2.79448,-0.72219 0,-1.05416 0.47049,-2.07349 1.04553,-2.26517 1.41427,-0.47143 1.37808,-53.17696 -0.0368,-53.6486 -1.15231,-0.3841 -1.40381,-14.16596 -0.2587,-14.1764 0.4125,-0.004 1.81007,-1.56353 3.10572,-3.46616 1.29564,-1.90264 3.20814,-3.72989 4.25,-4.06056 1.05626,-0.33524 1.89429,-1.51803 1.89429,-2.67359 0,-1.1398 0.7875,-2.65666 1.75,-3.37078 1.65223,-1.22587 1.63826,-1.38191 -0.25,-2.79292 -1.54321,-1.15317 -1.72986,-1.76861 -0.81722,-2.69462 1.59046,-1.61375 4.44566,-0.43281 3.69337,1.52761 -0.45985,1.19836 0.162,1.53786 2.81686,1.53786 1.87385,0 3.94699,0.54 4.60699,1.2 0.84895,0.84894 1.2,0.86984 1.2,0.0714 0,-0.62072 0.67295,-1.80152 1.49543,-2.62401 2.04833,-2.04833 4.24271,-21.05309 2.65218,-22.96957 -1.13078,-1.3625 -0.60124,-2.67785 1.07807,-2.67785 0.4908,0 0.56344,0.5625 0.16144,1.25 -0.402,0.6875 0.16938,0.4625 1.26973,-0.5 3.1551,-2.75984 10.87054,-2.34786 14.99876,0.80089 3.2944,2.51276 3.34439,2.66882 3.34439,10.44098 0,4.33955 -0.45,8.16821 -1,8.50813 -0.55,0.33991 -1,1.49147 -1,2.55901 0,1.06754 -0.45,1.94099 -1,1.94099 -0.62961,0 -1,6.66384 -1,17.99152 0,16.90852 -0.12039,18.06672 -2,19.24055 -1.21506,0.75882 -2,2.33203 -2,4.00848 0,1.5177 -0.3375,2.76296 -0.75,2.76725 -0.4125,0.004 -1.3125,1.21901 -2,2.69937 -1.50906,3.24938 -1.72202,16.70259 -0.25,15.79283 0.56387,-0.34849 1,0.46235 1,1.8592 0,3.33261 0.96651,5.64249 2.35699,5.633 1.20612,-0.008 3.64301,-4.48436 3.64301,-6.69156 0,-0.71535 0.3375,-1.3058 0.75,-1.31211 0.4125,-0.006 1.6099,-1.80631 2.66088,-4 1.05099,-2.19369 2.31504,-3.98853 2.80902,-3.98853 0.49397,0 0.62002,0.45 0.2801,1 -0.33992,0.55 -0.25398,1.04196 0.19098,1.09324 8.46024,0.97506 13.65696,0.3374 9.74264,-1.19546 -1.79905,-0.70451 -1.78113,-0.7621 0.25736,-0.82749 1.20504,-0.0387 2.4691,0.37971 2.80902,0.92971 0.33992,0.55 0.14148,1 -0.44098,1 -0.58246,0 -1.05902,0.49814 -1.05902,1.10699 0,0.60884 0.65845,0.85432 1.46322,0.5455 1.36862,-0.52519 2.15518,1.75993 2.87327,8.34751 0.31594,2.89837 5.71236,6.57897 8.22965,5.61299 0.77543,-0.29756 1.30277,-0.064 1.17186,0.5191 -0.42592,1.89713 4.04989,2.93716 5.66962,1.31743 1.78367,-1.78367 2.99649,-0.29811 2.08954,2.55943 -0.49464,1.55848 -0.1737,1.99105 1.47727,1.99105 2.68639,0 6.47625,3.46176 5.50692,5.03017 -0.54704,0.88514 -0.948,0.84144 -1.59104,-0.17341 -0.52595,-0.83006 -0.86563,1.45774 -0.875,5.89324 -0.0168,7.95316 1.04687,8.99603 5.78822,5.67506 2.85063,-1.99666 12.6533,-3.11295 13.61873,-1.55085 0.38268,0.61919 1.56922,1.12579 2.63676,1.12579 1.53819,0 1.94098,0.7009 1.94098,3.37756 0,4.26915 -1.84077,5.78375 -8.331,6.85478 -9.92201,1.63735 -14.15988,2.50141 -12.919,2.63405 1.5221,0.16269 1.666,3.75848 0.18699,4.67255 -0.58466,0.36134 -1.82216,-0.003 -2.75,-0.81049 -3.02996,-2.63569 -4.18699,-0.99801 -4.18699,5.92631 0,4.28968 0.48405,6.97215 1.42857,7.91667 1.53876,1.53876 4.57143,1.94689 4.57143,0.61522 0,-0.44735 1.5546,-1.42333 3.45466,-2.16886 1.90006,-0.74553 3.26911,-1.65572 3.04234,-2.02265 -0.54244,-0.87768 -3.6747,-0.62139 -5.39431,0.4414 -0.94279,0.58267 -1.21739,0.41416 -0.89194,-0.54734 0.33418,-0.98728 1.96295,-1.32395 5.62973,-1.16365 2.84092,0.12418 5.15952,-0.21285 5.15952,-0.75 0,-0.53655 0.93214,-0.97555 2.07143,-0.97555 1.13928,0 2.70537,-0.63394 3.48018,-1.40875 0.77482,-0.77482 3.23721,-1.71767 5.47198,-2.09524 3.54233,-0.59847 3.89742,-0.88741 2.76982,-2.25386 -1.02481,-1.24189 -1.03382,-1.65476 -0.0434,-1.9881 0.6875,-0.2314 1.25,-0.91028 1.25,-1.50864 0,-0.59836 0.74474,-1.91086 1.65499,-2.91667 1.4385,-1.58954 1.45452,-1.82874 0.12243,-1.82874 -0.8429,0 -2.09274,-0.675 -2.77743,-1.5 -0.78502,-0.94589 -0.85205,-1.5 -0.18146,-1.5 0.58488,0 1.34154,0.45 1.68146,1 0.33992,0.55 1.96803,1 3.61803,1 1.65,0 2.7863,-0.34578 2.5251,-0.7684 -0.26119,-0.42263 1.28725,-0.60036 3.44099,-0.39497 3.10547,0.29616 3.91588,0.0361 3.91588,-1.25635 0,-0.89638 1.0125,-2.02756 2.25,-2.51373 1.2375,-0.48618 3.0331,-1.82504 3.99021,-2.97525 1.35335,-1.62638 3.02068,-2.13196 7.5,-2.27419 7.93012,-0.2518 11.70598,0.0961 12.05774,1.11096 0.16387,0.47279 1.17949,0.62908 2.25694,0.34733 1.07744,-0.28176 3.25698,0.0254 4.84341,0.68247 2.26838,0.9396 3.31743,0.92435 4.91186,-0.0714 1.49363,-0.93278 2.37868,-0.97465 3.36147,-0.159 0.98575,0.8181 1.80533,0.76253 3.13922,-0.21283 1.72158,-1.25885 1.70693,-1.38879 -0.31621,-2.80585 -1.94204,-1.36026 -2.11767,-2.38907 -2.07745,-12.16894 0.0391,-9.51729 -0.23419,-11.23191 -2.50477,-15.71269 -1.40179,-2.7663 -2.30716,-5.65908 -2.01195,-6.4284 0.29522,-0.76932 0.0485,-1.39877 -0.54835,-1.39877 -1.74813,0 -0.57112,-12.54803 1.37915,-14.70306 1.31605,-1.45422 1.706,-4.50487 1.95621,-15.30403 l 0.31252,-13.48776 3.75558,-1.22859 c 3.77449,-1.23477 8.74442,-0.16402 8.74442,1.88396 0,0.46172 0.6199,0.83949 1.37756,0.83949 2.34233,0 3.8615,2.5567 2.29276,3.85864 -0.74489,0.6182 -1.65043,0.82791 -2.01233,0.46601 -0.36189,-0.36189 -0.65799,2.11701 -0.65799,5.50868 0,4.65359 0.3476,6.16667 1.41667,6.16667 0.77916,0 1.56666,0.42353 1.75,0.94118 0.18333,0.51765 1.62604,1.17286 3.20602,1.45603 1.57999,0.28316 2.96321,0.64713 3.07384,0.80881 0.11063,0.16169 1.18042,1.71344 2.37731,3.44835 1.3672,1.98178 2.17616,4.67686 2.17616,7.25 0,2.2526 0.45,4.09563 1,4.09563 0.55,0 1,1.09844 1,2.44098 0,1.34254 0.45,2.7191 1,3.05902 1.29656,0.80132 1.29656,5.19868 0,6 -0.55,0.33992 -1,1.49148 -1,2.55902 0,1.16977 -0.69533,1.95362 -1.75,1.97278 -1.66667,0.0303 -1.66667,0.0951 0,1.36025 0.9625,0.73064 1.75,1.83751 1.75,2.45972 0,0.6222 0.9,1.69334 2,2.3803 1.29203,0.80689 2,2.33203 2,4.30848 0,1.6827 0.54,3.59945 1.2,4.25945 0.93333,0.93333 0.93333,1.2 0,1.2 -0.66,0 -1.2,0.9 -1.2,2 0,1.1 0.45,2 1,2 0.55,0 1,1.32344 1,2.94098 0,1.61754 0.45,3.2191 1,3.55902 0.55,0.33992 1,1.44935 1,2.4654 0,1.35503 0.53301,1.70798 2,1.32435 1.41669,-0.37047 2,-0.0307 2,1.16505 0,2.3253 -2.66935,4.97614 -3.30921,3.28627 -0.25846,-0.68259 -0.45069,0.23748 -0.42717,2.04459 0.0235,1.80712 0.42383,3.52117 0.88957,3.80902 0.46575,0.28784 0.84681,1.59524 0.84681,2.90532 0,1.31008 0.45,2.66008 1,3 0.55,0.33992 1,1.26133 1,2.04759 0,2.48548 3.34133,5.45241 6.14045,5.45241 5.34259,0 5.85955,0.69861 5.85955,7.91843 0,5.35722 0.40829,7.14269 2.03184,8.88537 2.00058,2.14737 2.58601,9.1962 0.76377,9.1962 -0.43758,0 -0.79561,0.70156 -0.79561,1.55902 0,0.85746 0.45,1.2809 1,0.94098 1.11022,-0.68615 1.4364,7.73026 0.34201,8.82466 -0.3619,0.36189 -1.2619,0.15679 -2,-0.45578 -1.02535,-0.85097 -1.34201,-0.74487 -1.34201,0.44966 0,0.85988 0.45,1.84154 1,2.18146 0.55,0.33992 1,1.94148 1,3.55902 0,1.61754 0.45,2.94098 1,2.94098 0.55,0 1,1.32344 1,2.94098 0,1.61754 0.38133,3.17666 0.8474,3.4647 0.46606,0.28805 0.9416,3.80211 1.05674,7.80902 0.11514,4.00692 0.63382,7.7128 1.15261,8.2353 1.30956,1.31893 1.25421,53.55 -0.0568,53.55 -0.57649,0 -1,3.131 -1,7.39301 0,5.61173 -0.35735,7.53014 -1.48314,7.96215 -0.81573,0.31302 -1.25469,1.16447 -0.97547,1.8921 0.27921,0.72763 -0.40337,2.30085 -1.51686,3.49604 -2.18347,2.34367 -2.68906,3.78543 -0.95071,2.71107 0.59061,-0.36501 0.47811,0.36238 -0.25,1.61643 -2.40813,4.14766 -5.16115,6.9292 -6.85813,6.9292 -0.92051,0 -2.97685,1.2229 -4.56967,2.71755 -2.46642,2.31443 -2.63461,2.77068 -1.13378,3.07569 2.01895,0.41028 1.35038,2.20676 -0.82121,2.20676 -0.79254,0 -1.44098,-0.9 -1.44098,-2 0,-2.65978 -0.46836,-2.53811 -3.84957,1 -1.57682,1.65 -3.23685,3 -3.68894,3 -1.6241,0 -10.46149,4.37435 -10.46149,5.17826 0,0.45196 -0.9,0.82174 -2,0.82174 -1.76068,0 -2,0.66667 -2,5.57143 0,6.32522 -1.40074,8.41215 -5.67857,8.46037 -4.57426,0.0516 -6.32143,2.07706 -6.32143,7.32844 0,2.55187 0.45,4.63976 1,4.63976 0.55445,0 1,2.64699 1,5.94098 0,3.26754 0.45,6.2191 1,6.55902 0.55,0.33992 1,2.43361 1,4.65264 0,3.18711 -0.41809,4.14393 -1.99041,4.5551 -1.55766,0.40734 -1.86687,1.09359 -1.4222,3.15638 0.95387,4.42496 2.63947,7.18714 3.82499,6.26799 0.59819,-0.46379 2.12584,-1.09784 3.39477,-1.409 1.90835,-0.46797 2.10325,-0.32008 1.12756,0.85556 -0.93708,1.12911 -0.84603,1.42133 0.44285,1.42133 0.89234,0 1.62244,-0.36095 1.62244,-0.80211 0,-0.44115 3.41822,-0.74198 7.59604,-0.6685 5.45283,0.0959 7.73839,-0.23731 8.10052,-1.18102 0.28863,-0.75215 1.85203,-1.24919 3.65396,-1.16168 1.73221,0.0841 4.27448,0.0697 5.64948,-0.0322 2.00395,-0.1484 2.20237,-0.37748 1,-1.15451 -1.28754,-0.83208 -1.25658,-0.97154 0.21862,-0.98469 1.11403,-0.01 1.51612,-0.54298 1.14301,-1.51531 -0.31659,-0.825 -0.0633,-1.5 0.56277,-1.5 0.6261,0 1.4113,0.71126 1.74489,1.58057 0.39017,1.01676 1.34136,1.3884 2.66658,1.04185 1.13303,-0.2963 2.64597,-0.0524 3.36209,0.54188 0.71612,0.59432 1.30893,0.68799 1.31735,0.20814 0.0399,-2.27244 1.95599,2.47318 1.96938,4.87756 0.0118,2.11083 0.4972,2.75 2.08863,2.75 1.43427,0 1.97111,0.5394 1.74169,1.75 -0.23178,1.22302 -1.45838,1.84346 -4.07333,2.06037 -2.16492,0.17959 -3.74168,-0.13646 -3.74168,-0.74998 0,-0.58321 -0.45,-1.06037 -1,-1.06037 -0.55,0 -1,0.9 -1,2 0,1.30435 -0.66667,2 -1.91667,2 -1.05416,0 -2.10457,0.5625 -2.33424,1.25 -0.28171,0.84331 -2.26093,1.17263 -6.08333,1.01219 -3.96427,-0.1664 -5.66576,0.13392 -5.66576,1 0,1.52927 -1.14202,1.64165 -23.7562,2.33789 -23.01839,0.70868 -24.2438,0.33448 -24.2438,-7.40321 0,-3.11516 0.39457,-5.07105 0.95333,-4.72571 1.02183,0.63152 5.04667,-2.36112 5.04667,-3.75242 0,-0.46022 -0.39901,-0.59017 -0.88669,-0.28877 -0.48768,0.30141 -1.50018,-0.20629 -2.25,-1.12821 -1.18458,-1.45647 -1.14341,-1.5939 0.31401,-1.04827 1.46337,0.54786 1.54656,0.25287 0.65217,-2.31277 -0.56383,-1.61739 -1.65612,-2.94072 -2.42732,-2.94072 -1.08518,0 -1.40217,-1.79523 -1.40217,-7.94098 0,-4.36754 -0.45,-8.2191 -1,-8.55902 -0.55,-0.33992 -1,-1.52362 -1,-2.63045 0,-1.10682 -0.70994,-2.72235 -1.57765,-3.59005 -0.8677,-0.86771 -1.35983,-2.41057 -1.09362,-3.42858 0.26622,-1.018 0.0621,-1.85092 -0.45368,-1.85092 -0.51573,0 -0.93788,-1.4625 -0.9381,-3.25 -10e-4,-8.80347 -1.15401,-10.6758 -4.50838,-7.32143 -1.65283,1.65283 -1.99546,12.10304 -0.42857,13.07143 0.55,0.33992 1,1.40148 1,2.35902 0,0.95754 0.54051,2.28149 1.20113,2.94211 0.67672,0.67672 1.08034,3.1653 0.92447,5.7 -0.16694,2.71469 0.14988,4.49887 0.79887,4.49887 0.67775,0 1.07553,2.9588 1.07553,8 0,4.66667 0.41667,8 1,8 0.55,0 1,1.35 1,3 0,1.65 0.45,3 1,3 0.55,0 1,2.25 1,5 0,2.75 -0.45,5 -1,5 -0.55,0 -1,0.9 -1,2 0,1.77778 -0.66667,2 -6,2 -4.07181,0 -6.03707,0.40171 -6.11535,1.25 -0.0634,0.6875 -0.17594,1.91764 -0.25,2.73364 -0.0741,0.81601 -0.97544,1.64676 -2.00308,1.84613 -1.16121,0.22529 -1.61201,-0.0524 -1.19098,-0.73364 0.38462,-0.62233 -0.0219,-1.09613 -0.94059,-1.09613 -0.88992,0 -1.33992,-0.45 -1,-1 1.10614,-1.78977 -1.34851,-1.05271 -2.6933,0.80872 -1.18691,1.64292 -2.95678,1.79072 -19.3067,1.61227 -23.42006,-0.25561 -22.5,-0.17706 -22.5,-1.92099 0,-0.825 -0.65383,-1.5 -1.45295,-1.5 -1.95797,0 -6.54705,2.14033 -6.54705,3.05353 0,1.3572 -2.4296,1.44801 -25.32165,0.94647 z m 71.82165,-6.26339 c 1.23967,-1.56322 6.86314,-4.1332 6.00469,-2.7442 -0.3425,0.55418 -0.18367,1.00759 0.35296,1.00759 0.53663,0 1.14597,-0.51087 1.3541,-1.13526 0.22431,-0.67291 2.48122,-1.08789 5.54158,-1.01894 5.0622,0.11404 5.17504,0.0529 5.77125,-3.12515 0.33446,-1.7828 0.0664,-4.58678 -0.59559,-6.23106 -0.66203,-1.64427 -1.54483,-7.75785 -1.96177,-13.58572 -0.41695,-5.82787 -1.1999,-11.45287 -1.7399,-12.5 -2.34116,-4.53984 -3.22732,-9.66171 -3.22732,-18.65344 0,-10.23397 1.01256,-12.75043 5.13045,-12.75043 1.09317,0 1.73861,-0.40285 1.43431,-0.89522 -0.69115,-1.1183 1.79226,-2.15426 3.02592,-1.26226 0.50013,0.36161 1.76848,1.6721 2.81857,2.91219 1.79248,2.11681 2.38324,4.29698 4.53745,16.74529 1.10794,6.40234 1.85723,8.21078 3.694,8.91562 0.81734,0.31364 1.18314,1.0604 0.81289,1.65947 -0.37024,0.59907 -0.35743,4.45867 0.0285,8.57689 0.58901,6.2856 1.16853,8.01942 3.60979,10.79987 3.8737,4.4119 3.85686,8.3551 -0.0495,11.59506 -5.774,4.78897 -4.68262,5.10107 15.20765,4.34885 10.0375,-0.37961 18.4,-1.07394 18.58333,-1.54298 0.18334,-0.46903 2.71574,-0.85278 5.62756,-0.85278 3.46862,0 5.72034,-0.51345 6.52997,-1.48899 0.67967,-0.81894 1.62512,-1.24834 2.10102,-0.95422 1.36863,0.84586 7.0669,-3.79801 5.98631,-4.8786 -0.58073,-0.58073 -1.98069,-0.11345 -3.69126,1.23209 -1.99604,1.57009 -3.53006,1.99756 -5.56473,1.55067 -1.89285,-0.41574 -3.32372,-0.10229 -4.38705,0.96104 -1.29946,1.29947 -4.27158,1.57801 -16.8376,1.57801 -15.10561,0 -15.27262,-0.0243 -16.55065,-2.41236 -0.89215,-1.667 -1.10183,-4.52502 -0.67863,-9.25 0.81289,-9.07582 0.69092,-12.74095 -0.96205,-28.90852 -0.58701,-5.74143 -0.45906,-6.24783 2.35783,-9.33193 2.12373,-2.32518 3.94815,-3.30928 6.35723,-3.42912 2.93731,-0.14611 3.42192,-0.54664 3.70939,-3.06573 0.71972,-6.30692 9.50325,-15.45048 15.25856,-15.88401 1.05092,-0.0792 1.91077,-0.46785 1.91077,-0.86375 0,-0.39589 0.83171,-0.98378 1.84824,-1.30641 1.01654,-0.32264 2.35689,-1.70296 2.97856,-3.06739 0.73983,-1.62374 1.94787,-2.48078 3.49677,-2.48078 1.30155,0 3.17134,-0.88939 4.15509,-1.97642 0.98375,-1.08703 2.17433,-1.73804 2.64575,-1.44669 0.47141,0.29135 1.61042,-1.04999 2.53114,-2.98076 0.92071,-1.93076 2.04987,-3.27819 2.50924,-2.99428 0.78263,0.48369 1.32676,-3.5805 1.0847,-8.10185 -0.0589,-1.1 0.14782,-2.675 0.45937,-3.5 0.4117,-1.09023 0.77478,-0.81705 1.32911,1 0.52499,1.72091 0.79373,0.26661 0.86235,-4.66667 0.0663,-4.76971 0.51775,-7.30567 1.34968,-7.58228 0.93922,-0.31228 1.32855,-6.13169 1.56594,-23.40616 0.27353,-19.9035 0.10568,-23.16505 -1.25,-24.29016 -1.18987,-0.98748 -1.56597,-3.2823 -1.56597,-9.55473 0,-6.11793 -0.38834,-8.5774 -1.5,-9.5 -0.93583,-0.77667 -1.50232,-2.98538 -1.50616,-5.87244 -0.003,-2.54516 -0.67839,-5.9165 -1.5,-7.49187 -0.86952,-1.66723 -1.49384,-5.52951 -1.49384,-9.24152 0,-5.11063 0.36565,-6.60557 1.841,-7.52695 1.78801,-1.11663 1.78801,-1.25942 0,-4.96017 -1.01255,-2.09574 -1.841,-5.37037 -1.841,-7.27696 0,-5.55825 -0.80055,-6.63009 -4.952,-6.63009 -5.98182,0 -6.19258,-0.42452 -10.67409,-21.5 -0.81867,-3.85 -1.73879,-10.375 -2.04472,-14.5 -0.56481,-7.61559 -3.8585,-15.49841 -6.97551,-16.69452 -1.99588,-0.76589 -1.67471,-7.04452 0.47857,-9.3558 2.19155,-2.35235 2.15088,-4.80028 -0.13778,-8.29322 -0.93196,-1.42235 -1.69447,-4.36926 -1.69447,-6.5487 0,-3.08979 -0.58036,-4.41911 -2.63486,-6.03518 -1.44917,-1.13992 -3.42242,-2.07258 -4.38499,-2.07258 -3.5763,0 -5.24611,-5.377 -5.99737,-19.31226 -0.0612,-1.13606 -0.72923,-1.69322 -1.79024,-1.49321 -1.34183,0.25293 -1.85134,1.97533 -2.45891,8.31225 -0.75589,7.88404 -2.22564,18.90208 -3.36731,25.24322 -0.36203,2.01081 -0.17605,3.25 0.48778,3.25 0.61446,0 1.03522,1.8774 0.98471,4.39374 -0.0485,2.41655 0.26632,4.96735 0.69962,5.66844 0.43329,0.70109 1.14528,4.6864 1.58219,8.85626 0.95432,9.10791 2.0247,13.85407 4.70051,20.84239 2.94401,7.68879 2.51161,7.89884 -14.3886,6.98956 -7.66289,-0.41228 -15.95753,-0.89787 -18.43253,-1.07908 -5.44057,-0.39834 -8.18757,0.49393 -11.77873,3.8259 -1.4967,1.38867 -3.50877,2.77522 -4.47127,3.08121 -0.9625,0.306 -1.75,0.97603 -1.75,1.48897 0,0.51293 -1.32448,0.93261 -2.9433,0.93261 -3.40944,0 -6.0567,3.06939 -6.0567,7.02251 0,3.3828 -1.71851,4.97749 -5.36398,4.97749 -3.25592,0 -10.63602,2.90905 -10.63602,4.19245 0,0.44415 -0.6199,0.80755 -1.37756,0.80755 -0.75765,0 -1.93775,0.675 -2.62244,1.5 -0.68469,0.825 -2.25969,1.5 -3.5,1.5 -2.38489,0 -4.9368,2.22987 -3.82466,3.34201 0.3619,0.36189 1.70799,0.65799 2.99133,0.65799 1.28333,0 2.33333,0.40598 2.33333,0.90217 0,0.4962 1.35258,1.37369 3.00573,1.94998 1.78488,0.62221 3.472,2.18511 4.15366,3.84783 1.38279,3.37291 1.90811,5.70085 1.10527,4.89801 -0.3219,-0.3219 -1.18252,0.26743 -1.9125,1.30962 -1.48068,2.11397 -7.4451,2.31356 -8.12565,0.27192 -0.21625,-0.64874 -1.63997,-1.17953 -3.16382,-1.17953 -3.96454,0 -7.69913,-3.88861 -8.54544,-8.89787 -0.39888,-2.36099 -1.76406,-5.25803 -3.11378,-6.60775 -1.65055,-1.65055 -2.40347,-3.53473 -2.40347,-6.01467 0,-1.98615 -0.49646,-4.53884 -1.10325,-5.67263 -0.60678,-1.13378 -0.71928,-2.3417 -0.25,-2.68425 0.46929,-0.34256 0.97821,-2.19086 1.13094,-4.10735 0.39286,-4.92959 4.31198,-7.93274 10.41329,-7.97952 7.1675,-0.0549 6.82906,-1.89329 -0.41192,-2.23749 l -6.27906,-0.29847 -0.28559,-8.5206 -0.28558,-8.52059 -4.21442,-2.1534 c -2.31792,-1.18437 -5.33941,-2.44089 -6.71441,-2.79226 -4.12956,-1.05527 -7,-2.77021 -7,-4.18213 0,-0.73206 -0.675,-1.33102 -1.5,-1.33102 -0.825,0 -1.55625,-0.675 -1.625,-1.5 -0.0688,-0.825 -0.2375,-1.95 -0.375,-2.5 -0.1375,-0.55 -0.30625,-2.125 -0.375,-3.5 -0.11357,-2.2714 -0.52984,-2.5 -4.55242,-2.5 -3.59194,0 -4.81853,0.49721 -6.5,2.63486 -1.13992,1.44917 -2.07258,3.43417 -2.07258,4.41111 0,2.95445 -5.66714,6.95606 -9.82673,6.93872 -4.67264,-0.0195 -6.36848,-1.11225 -6.36897,-4.10406 -10e-4,-8.11197 1.64275,-28.03889 2.34937,-28.47561 0.46548,-0.28768 0.84633,-1.5664 0.84633,-2.84159 0,-1.2752 0.64217,-2.85149 1.42703,-3.50287 1.60949,-1.33576 2.34274,-7.82903 2.88894,-25.58279 0.21654,-7.03867 0.89176,-12.9974 1.62888,-14.37472 1.2783,-2.38854 1.61306,-11.76987 0.54057,-15.14901 -0.65803,-2.07324 -3.45666,-3.28605 -5.64502,-2.4463 -2.02953,0.77881 -4.09631,11.0748 -3.68589,18.36186 0.30298,5.37934 0.12292,6.13382 -1.46353,6.13222 -1.02313,-10e-4 -1.52361,0.45997 -1.15204,1.06119 0.94868,1.53499 -2.47705,4.93699 -4.97142,4.93699 -1.16738,0 -3.19295,-0.74977 -4.50127,-1.66615 -2.26868,-1.58905 -2.46407,-1.56079 -4.2225,0.61078 -1.01406,1.25231 -1.84375,2.83682 -1.84375,3.52111 0,0.6843 -1.4625,2.4562 -3.25,3.93754 l -3.25,2.69336 0.35823,34.23942 c 0.31931,30.51908 0.18349,34.38443 -1.25,35.57412 -0.88453,0.73409 -1.60823,2.17104 -1.60823,3.19321 0,1.92195 -2.83049,3.06884 -6.5,2.63375 -1.83458,-0.21753 -2.02157,0.42455 -2.2608,7.76286 -0.14345,4.4 -0.655,8.9 -1.13679,10 -0.48179,1.1 -1.34112,4.7 -1.90963,8 -0.56851,3.3 -1.76546,9.375 -2.6599,13.5 -0.89444,4.125 -2.00515,10.92348 -2.46825,15.10773 -0.46309,4.18426 -1.3033,8.46972 -1.86713,9.52324 -1.28371,2.39863 -1.70349,10.96378 -0.71712,14.63202 0.46047,1.71245 0.29394,3.30401 -0.43799,4.18593 -1.36706,1.64721 -2.10066,10.55108 -0.86931,10.55108 0.4548,0 0.82692,0.47656 0.82692,1.05902 0,0.58246 -0.45,0.7809 -1,0.44098 -0.55,-0.33992 -1,-0.14148 -1,0.44098 0,0.58246 0.34939,1.05902 0.77643,1.05902 1.18551,0 0.17328,8.29664 -1.22005,10 -1.90647,2.33066 -3.67316,7.40261 -3.77045,10.82446 -0.0486,1.70867 -0.35779,2.94014 -0.68713,2.7366 -0.32934,-0.20354 -0.5988,3.07445 -0.5988,7.28443 0,6.32502 -0.38879,8.19957 -2.23845,10.79266 -1.23115,1.72599 -2.92646,6.22599 -3.76735,10 -0.8409,3.77402 -1.75467,7.87435 -2.0306,9.11185 -0.27594,1.2375 -1.16813,2.25 -1.98265,2.25 -0.81452,0 -1.48095,0.45 -1.48095,1 0,1.30319 -6.58304,1.29352 -9.02477,-0.0133 -1.04131,-0.55729 -3.59922,-1.16471 -5.68426,-1.34983 -4.34694,-0.38594 -10.93513,-3.0694 -11.46918,-4.67155 -0.1988,-0.5964 -2.35142,-1.11183 -4.78359,-1.1454 -2.43217,-0.0336 -4.99512,-0.56929 -5.69546,-1.19049 -3.45918,-3.06835 -4.2173,-3.50663 -4.51917,-2.61258 -0.1825,0.54049 -1.58397,0.30371 -3.21445,-0.54308 -2.3708,-1.23128 -3.48849,-1.28528 -6.21278,-0.30017 -1.82704,0.66067 -3.45114,1.84992 -3.60912,2.64278 -0.36538,1.83376 5.56704,8.18358 7.64563,8.18358 0.99912,0 1.56715,0.89366 1.56715,2.46552 0,1.37334 1.28788,3.783 2.90729,5.43963 1.599,1.63577 3.20976,4.35128 3.57945,6.03448 0.36969,1.6832 1.08642,3.06037 1.59272,3.06037 0.50629,0 0.92054,0.84992 0.92054,1.88871 0,1.36679 0.96718,2.07015 3.5,2.54531 1.925,0.36113 3.5,1.01017 3.5,1.44231 0,0.43214 1.125,1.38779 2.5,2.12367 1.375,0.73588 2.5,1.86717 2.5,2.51399 0,0.64682 0.9,1.99052 2,2.98601 1.1,0.99549 2,2.36013 2,3.03254 0,0.67242 0.61205,1.73053 1.36011,2.35137 0.78497,0.65146 1.17473,2.28898 0.92172,3.87244 -0.30421,1.9038 -0.15093,2.33535 0.50072,1.4098 1.30976,-1.86026 2.39284,0.95546 1.12493,2.92453 -0.76497,1.188 -1.04617,1.19418 -1.79065,0.0393 -0.71812,-1.11396 -1.07019,-1.03579 -1.88393,0.41829 -0.82124,1.46748 -2.14272,1.74774 -7.36683,1.56236 -3.50134,-0.12426 -6.79357,-0.64999 -7.31607,-1.16829 -0.5225,-0.51823 -3.76264,-0.9423 -7.20031,-0.9423 -4.89771,0 -6.47089,-0.37871 -7.26959,-1.75 -0.95796,-1.64469 -1.02112,-1.63946 -1.0497,0.0869 -0.0188,1.13761 1.11164,2.26794 2.9696,2.96924 1.65,0.62281 3,1.48372 3,1.91314 0,0.42942 1.4625,0.78571 3.25,0.79177 5.21629,0.0177 10.75588,1.17045 10.17113,2.11661 -0.29654,0.47981 1.0331,0.87238 2.95475,0.87238 1.92166,0 4.64822,0.43886 6.05902,0.97525 1.88625,0.71715 2.57352,0.65099 2.5969,-0.25 0.0212,-0.81755 0.43716,-0.72125 1.25,0.28941 0.78982,0.98203 2.98899,1.52533 6.25391,1.545 5.76062,0.0347 6.03305,-0.53018 4.2654,-8.8444 -1.01787,-4.78762 -4.41125,-9.80095 -11.31406,-16.71526 -1.92179,-1.925 -3.49257,-4.0074 -3.49061,-4.62756 0.002,-0.62015 -0.67144,-1.68775 -1.49644,-2.37244 -0.825,-0.68469 -1.5,-2.00542 -1.5,-2.93495 0,-0.92953 -2.69678,-3.91193 -5.99283,-6.62755 -4.49321,-3.70196 -5.99463,-5.58394 -6,-7.52083 -0.004,-1.42084 0.33033,-2.92084 0.74283,-3.33334 0.4125,-0.4125 0.75184,-1.275 0.7541,-1.91666 0.004,-1.258 5.64177,-1.63897 6.53931,-0.44192 0.46018,0.61374 3.41973,1.42482 6.20659,1.70094 0.4125,0.0409 0.75,0.71867 0.75,1.50622 0,2.05359 5.3752,5.59244 9.51478,6.2642 1.94358,0.3154 3.77442,0.9628 4.06852,1.43867 0.2941,0.47587 2.48503,0.86522 4.86873,0.86522 2.92995,0 4.52047,0.48594 4.9096,1.5 0.36403,0.94866 1.89777,1.5 4.17273,1.5 1.97842,0 4.39792,0.42858 5.37668,0.95239 0.97876,0.52382 5.89918,1.26338 10.93426,1.64348 5.03509,0.3801 9.1547,1.07652 9.1547,1.54761 0,0.47109 4.22686,0.85652 9.39301,0.85652 7.42685,0 9.5135,0.31398 9.96862,1.5 0.45853,1.19491 2.60882,1.5 10.57219,1.5 9.68136,0 10.10433,0.0946 13.4134,3 1.87924,1.65 3.84146,3 4.36048,3 0.51902,0 2.00055,1.125 3.2923,2.5 1.29175,1.375 2.90769,2.5 3.59098,2.5 0.68329,0 1.39235,0.41625 1.57569,0.925 0.18333,0.50875 0.92873,1.07125 1.65644,1.25 2.07769,0.51035 9.17689,7.44065 9.17692,8.9586 2e-5,0.75152 1.57502,2.62308 3.5,4.15903 2.2998,1.83502 3.49997,3.63874 3.49997,5.26009 0,3.2346 -7.65223,11.44724 -10.66615,11.44724 -1.2187,0 -2.49393,0.45 -2.83385,1 -0.33992,0.55 -1.49148,1 -2.55902,1 -1.06754,0 -1.94098,0.57479 -1.94098,1.27732 0,0.70252 -1.2375,2.4489 -2.75,3.88083 -1.5125,1.43194 -4.43024,4.45715 -6.48387,6.72269 -2.05363,2.26554 -4.19113,4.11916 -4.75,4.11916 -0.55887,0 -1.01613,0.675 -1.01613,1.5 0,0.825 -0.38429,1.5 -0.85398,1.5 -0.46968,0 -2.04468,1.10351 -3.5,2.45225 -1.45531,1.34874 -2.64602,2.22596 -2.64602,1.94938 0,-0.27658 -1.92639,1.53643 -4.28087,4.02892 -2.68509,2.84248 -5.50072,4.77577 -7.55324,5.18627 -2.94837,0.58968 -3.24235,0.96283 -2.96913,3.76883 l 0.30324,3.11435 9.79549,0.28676 c 7.48192,0.21903 9.92811,0.63236 10.35699,1.75 0.46534,1.21265 3.78695,1.46324 19.39549,1.46324 11.47731,0 19.0754,-0.39061 19.45203,-1 0.39901,-0.64561 -3.66674,-1 -11.47237,-1 -9.82453,0 -12.19827,-0.28112 -12.666,-1.5 -0.40391,-1.05255 -2.04568,-1.5 -5.5038,-1.5 -5.44961,0 -9.85783,-2.22493 -9.85783,-4.97546 0,-2.35487 3.62061,-7.52229 9.30502,-13.28035 2.58224,-2.61569 4.69498,-5.22975 4.69498,-5.80901 0,-0.57927 0.41987,-0.79372 0.93305,-0.47656 0.51317,0.31716 1.67746,-0.66878 2.58731,-2.19098 1.51332,-2.53184 8.95034,-7.03353 10.72964,-6.49474 0.4125,0.1249 0.75,-0.21165 0.75,-0.74791 0,-0.53625 1.91666,-1.84814 4.25925,-2.91532 5.7186,-2.60512 9.74075,-7.24766 9.74075,-11.2432 0,-2.28826 -1.2344,-4.59573 -4.50901,-8.42869 -2.47995,-2.90282 -4.80701,-6.76787 -5.17124,-8.58902 -0.36423,-1.82114 -2.40623,-6.00947 -4.5378,-9.30741 -2.97449,-4.60213 -3.80655,-6.81525 -3.57876,-9.5188 l 0.29681,-3.52255 7.70301,-0.29122 c 7.68506,-0.29054 7.70666,-0.28413 9.27568,2.75 0.86497,1.67267 2.23611,3.04122 3.04699,3.04122 0.81088,0 1.47432,0.45 1.47432,1 0,0.55 0.9,1 2,1 1.1,0 2,0.45 2,1 0,0.55 0.85186,1 1.89301,1 1.04116,0 2.15203,0.675 2.46862,1.5 0.31658,0.825 1.68258,1.5 3.03556,1.5 1.35297,0 3.05905,0.5991 3.79128,1.33133 0.73224,0.73223 2.58278,1.64543 4.11233,2.02932 1.70308,0.42744 2.51146,1.13411 2.08559,1.82318 -0.40334,0.65262 -0.24843,0.84894 0.36886,0.46743 1.7383,-1.07432 4.24475,0.41456 4.24475,2.52147 0,4.31466 1.81144,5.82727 6.97848,5.82727 3.93829,0 5.21571,0.43916 6.46482,2.22251 0.85618,1.22237 1.5567,3.0365 1.5567,4.03138 0,0.99488 0.675,2.0679 1.5,2.38448 0.825,0.31659 1.5,1.6259 1.5,2.9096 0,1.2837 0.45,2.61211 1,2.95203 0.55,0.33992 1,2.5953 1,5.01196 0,4.36268 1.64949,9.48804 3.05353,9.48804 1.09134,0 2.04712,3.02813 1.32471,4.197 -0.39553,0.64 -0.97661,0.51397 -1.56875,-0.34024 -0.63492,-0.91592 -0.71297,-0.54446 -0.24022,1.14324 0.38516,1.375 1.04667,2.725 1.47002,3 0.42335,0.275 0.73251,0.725 0.68703,1 -0.0455,0.275 1.12248,2.89947 2.59549,5.83216 3.02281,6.01829 3.55161,11.16784 1.14681,11.16784 -0.84227,0 -1.79041,0.675 -2.10699,1.5 -0.31659,0.825 -1.33746,1.5 -2.26862,1.5 -0.93115,0 -2.12892,0.43591 -2.66169,0.96868 -0.53278,0.53278 -2.76028,1.24917 -4.95,1.59198 -2.18973,0.34282 -4.14101,1.061 -4.33619,1.59595 -0.70894,1.94304 -5.84271,3.27743 -15.14513,3.93656 -6.62697,0.46956 -4.66121,0.5569 6.5,0.28879 11.2845,-0.27107 16.29472,-0.75599 17,-1.64535 z m -85.86163,-89.23661 c 0.31659,-0.825 0.75246,-1.5 0.96862,-1.5 0.21615,0 0.39301,0.675 0.39301,1.5 0,0.825 -0.43588,1.5 -0.96862,1.5 -0.53273,0 -0.70959,-0.675 -0.39301,-1.5 z m 75.56163,-98.7 c -0.72328,-0.72328 -1.19637,-4.19935 -1.19086,-8.75 0.007,-5.98582 0.51871,-8.58588 2.46873,-12.55 1.35277,-2.75 2.47589,-4.55 2.49582,-4 0.0199,0.55 1.04651,-0.26202 2.28128,-1.80448 1.86453,-2.32917 3.09245,-2.83763 7.24503,-3 2.75,-0.10754 6.14329,0.12691 7.54063,0.52098 3.92767,1.10768 6.37726,-4.19169 6.90035,-14.92796 0.0901,-1.85001 7.38376,-3.49577 10.40381,-2.34755 2.07393,0.7885 2.44903,1.46566 2.04527,3.69223 -0.27193,1.49965 -0.79996,3.20817 -1.17338,3.79671 -1.38725,2.18641 -1.12635,8.6675 0.37206,9.2425 1.89851,0.72852 9.07113,-4.02542 9.86972,-6.54156 0.33972,-1.07036 1.27554,-2.19856 2.07961,-2.5071 0.80406,-0.30855 1.46193,-1.23429 1.46193,-2.0572 0,-0.82291 0.90301,-1.97948 2.00669,-2.57015 1.64461,-0.88017 2.45657,-0.62407 4.5,1.41936 2.06164,2.06164 2.49331,3.45885 2.49331,8.07015 0,4.0347 -0.41479,5.73601 -1.5,6.15244 -1.13458,0.43538 -1.46029,2.07213 -1.337,6.71862 l 0.16299,6.14301 0.67401,-5.5 0.67401,-5.5 0.16299,6.19098 c 0.0897,3.40504 -0.287,6.4691 -0.837,6.80902 -0.55,0.33992 -1,2.08047 -1,3.86789 0,6.78034 -3.82015,8.41689 -19.95146,8.54722 -5.35865,0.0433 -12.12316,0.5301 -15.03226,1.0818 -7.44284,1.41151 -22.33096,1.28841 -23.81628,-0.19691 z m 25.3,-3.76766 c 0.55,-0.41645 5.94316,-0.8223 11.98479,-0.90189 17.87158,-0.23544 17.69518,-0.0695 18.31468,-17.22577 0.42371,-11.73384 1.15374,-15.08586 2.53825,-11.65468 0.30132,0.74674 0.53617,0.54544 0.58333,-0.5 0.0434,-0.9625 -0.55855,-1.75 -1.33772,-1.75 -0.77916,0 -1.64364,-0.5625 -1.92105,-1.25 -0.30132,-0.74674 -0.53617,-0.54544 -0.58333,0.5 -0.0434,0.9625 -0.54009,1.75 -1.1037,1.75 -0.56361,0 -1.42624,1.05599 -1.91694,2.34665 -0.49071,1.29065 -2.48546,3.10269 -4.43278,4.02676 -1.94731,0.92406 -3.81125,2.11807 -4.14207,2.65335 -0.33082,0.53528 -1.47494,0.97324 -2.54248,0.97324 -1.06754,0 -1.94098,0.45 -1.94098,1 0,0.55 -1.0125,1 -2.25,1 -1.61636,0 -2.29781,-0.63364 -2.41978,-2.25 -0.0934,-1.2375 -0.26631,-3.375 -0.38429,-4.75 -0.35711,-4.16206 0.76461,-10.94629 2.06994,-12.51912 1.01975,-1.22873 0.86763,-1.48088 -0.89343,-1.48088 -1.80951,0 -2.12244,0.58975 -2.12244,4 0,2.2 -0.41425,4 -0.92054,4 -0.5063,0 -1.20681,1.30334 -1.55669,2.89631 -0.34987,1.59297 -1.51062,3.68771 -2.57945,4.65499 -2.52204,2.28241 -2.4519,3.30079 0.30668,4.45262 1.59533,0.66613 0.6497,0.76883 -3.25,0.35299 -3.025,-0.32257 -5.99961,-1.20984 -6.61024,-1.9717 -2.24862,-2.80552 -5.9764,-1.59564 -9.92291,3.22055 -3.47151,4.23652 -4.71072,7.48041 -6.14023,16.07334 -0.49921,3.00078 -0.34091,3.1971 2.82225,3.5 5.16446,0.49454 19.23022,-0.29805 20.35113,-1.14676 z m -1,-10.93308 c -2.2698,-0.50246 -2.91881,-1.14301 -2.66643,-2.63168 0.49598,-2.92551 2.16643,-4.27909 2.16643,-1.75548 0,1.69065 0.81161,2.24922 4.06738,2.79928 2.23707,0.37795 4.33707,0.41751 4.66667,0.0879 0.32961,-0.3296 -0.4053,-0.59928 -1.63312,-0.59928 -2.68693,0 -6.10093,-1.69845 -6.10093,-3.03518 0,-0.53065 0.675,-0.96482 1.5,-0.96482 0.825,0 1.5,0.45 1.5,1 0,0.55 1.82656,1 4.05902,1 2.45136,0 3.81423,0.39607 3.44098,1 -0.33992,0.55 0.19602,1.01431 1.19098,1.0318 1.68776,0.0297 1.67891,0.13022 -0.13211,1.5 -1.99688,1.51037 -6.7822,1.73555 -12.05887,0.56746 z m 13.46937,-13.59926 c 0,-0.55 -0.43621,-0.325 -0.96937,0.5 -0.53316,0.825 -0.96937,1.95 -0.96937,2.5 0,0.55 0.43621,0.325 0.96937,-0.5 0.53316,-0.825 0.96937,-1.95 0.96937,-2.5 z m -121.96937,22.35015 c -13.51497,-1.40831 -14.00744,-1.85337 -13.9682,-12.6232 0.0222,-6.084 0.47645,-9.31482 1.5,-10.66808 0.85069,-1.12471 1.4682,-4.11256 1.4682,-7.10398 0,-4.09421 0.50758,-5.71053 2.45225,-7.80887 2.27864,-2.45869 3.04983,-2.64602 10.89301,-2.64602 9.57333,0 9.65474,0.0682 9.65474,8.08179 0,2.70501 0.39152,4.91821 0.87004,4.91821 0.93836,0 2.69739,-6.04526 3.63977,-12.50878 0.45175,-3.09846 1.27343,-4.40419 3.61837,-5.75 4.28512,-2.45932 5.54186,-2.21269 9.22803,1.81098 2.64153,2.88339 3.90283,3.51625 6.69902,3.36126 6.13954,-0.3403 7.94477,0.0336 7.94477,1.64556 0,0.85746 -0.45,1.2809 -1,0.94098 -0.62595,-0.38686 -0.97047,1.55483 -0.92105,5.19098 0.0434,3.19496 0.30592,5.24652 0.58333,4.55902 0.90755,-2.24915 1.92407,-1.31441 2.17499,2 0.13532,1.7875 0.29818,3.925 0.36192,4.75 0.29615,3.83348 -0.3174,6 -1.69919,6 -0.91273,0 -1.5,0.93084 -1.5,2.37756 0,1.30765 -0.675,2.93775 -1.5,3.62244 -0.825,0.68469 -1.5,1.81935 -1.5,2.52148 0,1.84963 -7.50535,5.47852 -11.33079,5.47852 -1.79807,0 -3.7677,0.49849 -4.37696,1.10775 -1.56672,1.56672 -12.14568,1.90391 -23.29225,0.7424 z m 18.5,-3.85015 c 0.33992,-0.55 2.61047,-1 5.04567,-1 6.24787,0 11.60307,-3.92949 14.7752,-10.84161 1.41086,-3.07429 2.67845,-4.77214 2.98631,-4 0.29421,0.73789 0.57045,-0.12089 0.61387,-1.90839 0.051,-2.09791 -0.36416,-3.16138 -1.17105,-3 -0.87893,0.17579 -1.33778,-1.75377 -1.54569,-6.5 l -0.29569,-6.75 -4.94584,0 c -3.86283,0 -5.21933,-0.43795 -6.19485,-2 -0.68696,-1.1 -1.81578,-2 -2.50848,-2 -0.6927,0 -1.25945,-0.51069 -1.25945,-1.13486 0,-0.62417 -0.9,0.009 -2,1.40773 -1.1,1.39842 -2,3.40243 -2,4.45336 0,3.82945 -3.0916,12.27498 -4.53874,12.39877 -0.80369,0.0687 -2.02376,0.21105 -2.71126,0.31621 -3.28889,0.5031 -4.65179,-1.47911 -4.95035,-7.19982 l -0.29965,-5.74139 -5.80359,0.0277 c -6.72146,0.0321 -7.65847,0.91918 -7.6811,7.27196 -0.008,2.36481 -0.63779,5.51481 -1.39859,7 -0.76081,1.48519 -1.70634,5.52438 -2.10117,8.97598 -0.85521,7.47618 0.12382,9.18024 5.35689,9.32404 1.99516,0.0548 4.75256,0.45997 6.12756,0.90032 3.64914,1.16866 15.77773,1.16866 16.5,0 z m -10.5,-11.44283 c -1.925,-0.72807 -5.525,-2.39551 -8,-3.70542 -3.79641,-2.00928 -4.5,-2.84838 -4.5,-5.36671 0,-2.52293 0.40265,-3.00034 2.60095,-3.0839 1.43052,-0.0544 3.0688,-0.38801 3.64061,-0.74142 0.57182,-0.3534 1.77427,0.47859 2.67211,1.84887 0.89784,1.37027 2.24196,2.49141 2.98694,2.49141 0.74497,0 1.9147,0.675 2.59939,1.5 1.94845,2.34774 5.25446,1.77384 8.88532,-1.54243 3.97032,-3.62633 9.673,-4.47538 11.46894,-1.70757 1.5053,2.31991 -0.22793,5.12848 -3.45639,5.60082 -1.31883,0.19294 -2.62287,0.69265 -2.89787,1.11046 -0.82302,1.25042 -6.28937,3.75846 -9.5,4.35874 -1.65,0.3085 -4.575,-0.0348 -6.5,-0.76285 z m 11.07516,-3.59551 c 2.19751,-1.12109 3.72299,-2.47924 3.38995,-3.01811 -0.3553,-0.57489 -1.77667,-0.14582 -3.43969,1.03835 -3.68706,2.62542 -9.39432,2.60367 -13.12105,-0.05 -1.5974,-1.13745 -2.90437,-1.56544 -2.90437,-0.9511 0,1.27569 7.59496,4.96417 10.28984,4.99724 0.98441,0.0121 3.5878,-0.89529 5.78532,-2.01638 z m -18.07516,-24.26377 c -3.35091,-1.66725 -3.99498,-7.48747 -1.11681,-10.09218 4.80708,-4.35035 14.09234,-1.62866 12.74588,3.73607 -1.47431,5.87411 -6.77495,8.77129 -11.62907,6.35611 z m 7,-7.4262 c 0,-2.83234 -3.49371,-0.80979 -3.83916,2.22254 -0.33725,2.96033 -0.32738,2.96646 1.75,1.08646 1.14904,-1.03986 2.08916,-2.52892 2.08916,-3.309 z m -7.39583,0.99914 c -0.33229,-0.33229 -0.56864,0.25834 -0.52522,1.3125 0.048,1.16495 0.28494,1.4019 0.60416,0.60417 0.28887,-0.72188 0.25335,-1.58438 -0.0789,-1.91667 z m 30.34957,4.83676 c -5.15481,-5.15481 -3.46109,-10.48423 4.54626,-14.30518 5.44493,-2.59822 5.97068,-2.07219 6.28927,6.29255 0.31209,8.19392 -0.14338,9.11621 -5.08553,10.29782 -2.26472,0.54146 -3.35774,0.10707 -5.75,-2.28519 z m 8.04626,-7.19931 0,-4.02135 -3.11151,1.80653 c -3.96793,2.30378 -4.56952,3.89653 -2.3839,6.31161 2.74261,3.03055 5.49541,0.97836 5.49541,-4.09679 z m -35,-119.84927 c 0,-0.51754 0.44485,-1.21591 0.98855,-1.55194 0.56686,-0.35033 0.7345,0.0511 0.39301,0.94099 -0.66479,1.73241 -1.38156,2.04938 -1.38156,0.61095 z m 44.5,364.94099 c 2,-0.85943 2,-0.85943 0,-0.83003 -1.1,0.0162 -3.125,0.38968 -4.5,0.83003 l -2.5,0.80064 2.5,0.0294 c 1.375,0.0162 3.4,-0.35734 4.5,-0.83003 z m 18.44265,-3 c 2.18272,0 4.349,-0.64649 5.06758,-1.51233 0.95467,-1.15031 1.58244,-1.24069 2.62245,-0.37756 0.75203,0.62413 1.36732,0.76468 1.36732,0.31233 0,-0.45234 0.54,-0.28244 1.2,0.37756 1.60048,1.60048 2.8,1.5178 2.8,-0.19301 0,-1.59562 2.12393,-2.60699 5.4748,-2.60699 1.27117,0 2.57024,-0.675 2.88683,-1.5 0.31658,-0.825 1.15222,-1.50251 1.85699,-1.50558 0.70476,-0.003 2.93415,-0.46463 4.95421,-1.02569 3.54494,-0.9846 3.64108,-1.13078 2.76132,-4.19834 -0.50132,-1.74801 -1.60106,-3.56411 -2.44386,-4.03576 -0.84279,-0.47165 -1.27441,-1.27491 -0.95915,-1.78502 0.31526,-0.5101 -0.20302,-2.56323 -1.15174,-4.5625 -1.62946,-3.43384 -1.80413,-3.53132 -3.1556,-1.76108 -1.3508,1.76937 -1.39236,1.7457 -0.74461,-0.42402 0.39619,-1.32707 0.1769,-2.91147 -0.51902,-3.75 -0.94156,-1.13451 -0.93451,-1.778 0.0322,-2.94285 0.76722,-0.92445 0.99236,-2.72904 0.59258,-4.75 -0.35458,-1.79254 -0.62235,-4.51989 -0.59502,-6.06077 0.0273,-1.54089 -0.52174,-3.43777 -1.22014,-4.2153 -3.26113,-3.63063 -3.76979,-4.56717 -3.76979,-6.94088 0,-1.59308 -0.56003,-2.54221 -1.5,-2.54221 -0.825,0 -1.5,0.45 -1.5,1 0,0.55 -0.675,1 -1.5,1 -0.825,0 -1.5,-0.49814 -1.5,-1.10699 0,-0.60884 -0.60883,-0.87336 -1.35295,-0.58781 -1.5282,0.58642 -4.1103,-2.03869 -5.11312,-5.1983 -0.37613,-1.18507 -1.51428,-2.1069 -2.60132,-2.1069 -1.06293,0 -1.93261,-0.675 -1.93261,-1.5 0,-0.825 -0.675,-1.5 -1.5,-1.5 -0.825,0 -1.5,-0.45 -1.5,-1 0,-0.55 -0.675,-1 -1.5,-1 -0.825,0 -1.5,-0.45 -1.5,-1 0,-0.55 -2.025,-1 -4.5,-1 -3.50379,0 -4.5,-0.36301 -4.5,-1.63976 0,-1.96306 -2.81532,-4.28419 -5.25,-4.32844 -0.9625,-0.0175 -1.75,-0.4818 -1.75,-1.0318 0,-0.55 -0.675,-1 -1.5,-1 -0.825,0 -1.5,-0.87344 -1.5,-1.94098 0,-1.06754 -0.46115,-2.22599 -1.02478,-2.57433 -0.56362,-0.34834 -0.90112,-0.0374 -0.75,0.69098 0.37388,1.80195 -5.24599,2.37685 -6.39709,0.65441 -0.55501,-0.83049 -0.63788,-0.20325 -0.22062,1.66992 0.83303,3.73968 2.29895,5.67585 3.66031,4.83448 0.57266,-0.35392 0.76108,-0.19026 0.41872,0.36369 -0.34236,0.55395 0.0238,1.86098 0.81369,2.90451 0.78989,1.04353 1.45047,2.49196 1.46797,3.21875 0.0175,0.72678 0.67994,1.96957 1.47212,2.76175 0.79218,0.79217 1.26801,2.33503 1.05742,3.42857 -0.29884,1.55174 0.16025,1.98825 2.09106,1.98825 1.36068,0 2.74292,0.70086 3.07163,1.55747 0.32871,0.85661 1.15995,1.3417 1.8472,1.07798 0.94915,-0.36423 1.12826,1.0315 0.74503,5.80568 -0.32843,4.09155 -0.11155,6.52805 0.62141,6.98104 0.61926,0.38273 1.12593,1.07486 1.12593,1.53807 0,1.09883 -6.69142,5.03976 -8.55716,5.03976 -0.79356,0 -1.44284,0.9 -1.44284,2 0,1.30796 -0.66667,2 -1.92668,2 -1.05967,0 -2.07217,0.75039 -2.25,1.66753 -0.28538,1.47183 -1.24563,1.83829 -6.57332,2.50855 -2.66907,0.33578 -1.07807,1.82392 1.95,1.82392 2.48889,0 2.93333,0.26667 2,1.2 -0.66,0.66 -1.2,2.043 -1.2,3.07332 0,1.25624 -0.57646,1.75332 -1.75,1.50902 -1.12754,-0.23473 -1.66527,-1.15004 -1.51179,-2.57333 0.25229,-2.33955 -0.0592,-2.49785 -3.23821,-1.64539 -1.71971,0.46115 -1.9744,1.29766 -1.81731,5.96893 0.18161,5.40059 -0.67332,7.20931 -2.78945,5.90147 -0.77345,-0.47802 -0.69816,-0.97047 0.25,-1.63515 1.05484,-0.73947 1.07859,-1.064 0.10676,-1.45833 -0.6875,-0.27897 -1.25,-1.36971 -1.25,-2.42387 0,-1.05417 -0.45,-1.91667 -1,-1.91667 -0.55,0 -1,0.76051 -1,1.69002 0,1.95625 -7.91625,9.47977 -9.16352,8.70892 -0.46006,-0.28434 -0.83648,0.40958 -0.83648,1.54204 0,1.84221 -1.02478,2.52879 -3.25,2.17744 -0.4125,-0.0651 -0.75,0.33158 -0.75,0.88158 0,0.55 0.9,1 2,1 1.1,0 2,0.45 2,1 0,0.55 1.99844,1 4.44098,1 2.44254,0 4.7191,0.45 5.05902,1 0.33992,0.55 1.29303,1 2.11803,1 0.825,0 1.22189,-0.45 0.88197,-1 -0.34463,-0.55763 0.40341,-0.99323 1.69098,-0.98469 1.85764,0.0123 2.01579,0.20481 0.80902,0.98469 -1.00481,0.64936 3.53441,0.97443 13.75,0.98469 8.3875,0.008 15.25,0.3586 15.25,0.77818 0,1.49658 4.50791,2.84884 6.8151,2.04437 1.2733,-0.44398 4.0307,-0.80724 6.12755,-0.80724 z m -48.94265,-12.44098 c 0,-3.0481 1.38766,-4.00177 2.99857,-2.06074 1.49945,1.80672 0.6211,4.50172 -1.46719,4.50172 -0.95693,0 -1.53138,-0.91565 -1.53138,-2.44098 z m 29,-52.05902 c -0.87682,-1.05651 -0.9819,-1.9181 -0.31524,-2.58476 0.66667,-0.66667 1.43842,-0.47175 2.31524,0.58476 0.87682,1.05651 0.9819,1.9181 0.31524,2.58476 -0.66667,0.66667 -1.43842,0.47175 -2.31524,-0.58476 z m 28.49292,65.51145 c 0.35034,-0.56686 -0.0511,-0.7345 -0.94098,-0.39301 -1.73242,0.66479 -2.04939,1.38156 -0.61096,1.38156 0.51754,0 1.21592,-0.44485 1.55194,-0.98855 z m 16.09548,-32.75639 c -1.07549,-1.07549 -1.64645,0.43075 -0.89148,2.35181 0.7082,1.80207 0.76169,1.80519 1.11193,0.0649 0.20237,-1.00555 0.10317,-2.09305 -0.22045,-2.41667 z M 406.78435,501.45957 c -0.30789,-0.30789 -1.11479,-6.4e-4 -1.79313,0.68278 -0.98026,0.98762 -0.8654,1.10248 0.5598,0.5598 0.98622,-0.37553 1.54122,-0.93469 1.23333,-1.24258 z m -6.52646,-3.19313 c 0,-0.55 -0.45,-1 -1,-1 -0.55,0 -1,0.45 -1,1 0,0.55 0.45,1 1,1 0.55,0 1,-0.45 1,-1 z m 10.74596,-38.41262 c 0.32305,-0.32306 -1.26107,-0.58738 -3.52028,-0.58738 -2.2592,0 -4.38161,0.44329 -4.71647,0.98509 -0.64516,1.04389 7.17263,0.66641 8.23675,-0.39771 z m -76.277,268.3624 c -0.95021,-1.53748 0.35135,-2.52947 1.63484,-1.24598 0.71818,0.71818 0.73543,1.27752 0.0524,1.69964 -0.55992,0.34605 -1.31919,0.1419 -1.68727,-0.45366 z m 192.92803,-30.11645 c -0.28326,-0.45833 0.15998,-0.83333 0.98498,-0.83333 0.825,0 1.73176,0.375 2.01502,0.83333 0.28327,0.45834 -0.15997,0.83334 -0.98497,0.83334 -0.825,0 -1.73176,-0.375 -2.01503,-0.83334 z M 244.25789,675.26644 c 0,-0.55 0.45,-1 1,-1 0.55,0 1,0.45 1,1 0,0.55 -0.45,1 -1,1 -0.55,0 -1,-0.45 -1,-1 z m -30.50001,-12 c -0.33992,-0.55 -0.14148,-1 0.44098,-1 0.58246,0 1.05902,0.45 1.05902,1 0,0.55 -0.19844,1 -0.44098,1 -0.24254,0 -0.7191,-0.45 -1.05902,-1 z m 136.13618,-9.50574 c -0.31537,-0.82184 -0.16408,-1.49426 0.3362,-1.49426 1.35555,0 2.19731,1.7771 1.14873,2.42516 -0.50134,0.30984 -1.16956,-0.10906 -1.48493,-0.9309 z m -57.63617,-7.49426 c 0,-0.55 0.45,-1 1,-1 0.55,0 1,0.45 1,1 0,0.55 -0.45,1 -1,1 -0.55,0 -1,-0.45 -1,-1 z m -22.41705,-45.86579 c -0.43077,-0.697 -0.51316,-1.53733 -0.18309,-1.86741 0.89497,-0.89496 1.87077,0.4213 1.38739,1.87145 -0.33872,1.01617 -0.57427,1.01538 -1.2043,-0.004 z"
       id="path3051"
       inkscape:connector-curvature="0" />
    <path
       style="color:#000000;fill:#ff0000;fill-opacity:1;fill-rule:nonzero;stroke-width:1;stroke-linecap:butt;stroke-linejoin:miter;stroke-miterlimit:4;stroke-opacity:1;stroke-dasharray:none;stroke-dashoffset:0;marker:none;visibility:visible;display:inline;overflow:visible;enable-background:accumulate"
       d="m 207.5646,388.4645 c 4.36344,-0.81289 5.79598,-1.3655 6.99723,-2.6992 0.55117,-0.61193 2.31715,-1.35903 4.29315,-1.81621 4.19878,-0.97145 8.85872,-2.86717 10.32182,-4.19904 0.61392,-0.55886 1.62762,-1.27979 2.25265,-1.60207 2.31546,-1.19389 1.13001,-6.66263 -3.45165,-15.92314 -1.36565,-2.76027 -2.483,-5.08993 -2.483,-5.17703 0,-0.0871 0.32562,-0.15837 0.72358,-0.15837 1.61758,0 1.31897,-3.89294 -0.37461,-4.88373 -1.38612,-0.81092 -2.35482,-3.662 -2.91612,-8.5827 -0.31173,-2.73287 -0.85014,-5.42343 -1.19646,-5.97901 -0.34632,-0.55558 -0.78799,-1.86289 -0.98148,-2.90513 -0.19349,-1.04224 -0.87211,-2.40595 -1.50805,-3.03046 -0.63595,-0.62451 -1.44157,-2.13942 -1.79028,-3.36647 -0.3487,-1.22705 -1.24405,-2.84104 -1.98965,-3.58664 -1.1665,-1.1665 -1.93723,-1.40638 -5.52384,-1.71924 -5.09153,-0.44414 -6.57868,-1.44619 -7.01906,-4.72952 -0.32821,-2.44699 -2.19859,-4.36877 -3.76736,-3.87086 -0.58252,0.18488 -0.93135,0.0465 -0.93228,-0.36996 -0.002,-0.76896 -7.38194,-4.38624 -10.31561,-5.05602 -1.09084,-0.24904 -2.50051,-1.01084 -3.13261,-1.69289 -0.63209,-0.68204 -1.57946,-1.24008 -2.10525,-1.24008 -0.5258,0 -1.36737,-0.45457 -1.87017,-1.01015 -0.5028,-0.55558 -1.41193,-1.01015 -2.0203,-1.01015 -0.60837,0 -1.51751,-0.45457 -2.02031,-1.01016 -0.5028,-0.55558 -1.21271,-1.01015 -1.57757,-1.01015 -0.36487,0 -1.5635,-1.21841 -2.66361,-2.70758 -2.43274,-3.29308 -2.98579,-3.43962 -11.3759,-3.01439 l -6.2562,0.31708 -0.31238,2.57618 c -0.40365,3.32885 0.14138,5.07428 3.28569,10.52243 1.42006,2.46053 3.45317,6.51214 4.51803,9.00358 1.12035,2.62127 3.20185,6.18939 4.94019,8.46849 3.82371,5.01319 4.7667,6.86257 4.7333,9.28289 -0.0507,3.67081 -3.00718,7.0001 -9.51234,10.71169 -2.26559,1.29265 -4.2472,2.68368 -4.40357,3.09116 -0.15636,0.40748 -0.81619,0.74087 -1.46628,0.74087 -1.82087,0 -6.92451,3.25884 -9.49643,6.06378 -1.27213,1.38738 -2.65618,2.52252 -3.07566,2.52252 -0.41948,0 -1.01133,0.51139 -1.31523,1.13642 -0.30389,0.62503 -2.53511,3.29562 -4.95827,5.93464 -7.17716,7.81657 -9.30598,11.8021 -7.80348,14.60955 0.7688,1.43652 4.97177,2.91327 9.36407,3.29016 3.12758,0.26836 4.30262,0.59257 5.20015,1.43479 1.06576,1.00008 1.90322,1.11692 10.35407,1.44451 5.05698,0.19604 10.2173,0.4005 11.46736,0.45436 l 2.27284,0.0979 -2.77792,0.46896 c -1.52785,0.25793 -9.85706,0.40182 -18.50934,0.31976 -14.35243,-0.13612 -15.81995,-0.22939 -16.74151,-1.06405 -1.20763,-1.09377 -5.8416,-1.83882 -11.52448,-1.85291 -2.25301,-0.006 -5.14626,-0.15406 -6.42945,-0.32994 -2.14687,-0.29426 -2.35786,-0.45199 -2.64384,-1.97639 -0.51238,-2.73119 0.0547,-3.54349 3.29935,-4.72657 2.26138,-0.82454 4.07163,-2.089 7.50109,-5.23953 5.04046,-4.63049 7.89926,-6.9893 9.50848,-7.84549 0.59308,-0.31554 1.21197,-1.10624 1.37533,-1.75709 0.16335,-0.65086 0.90224,-1.50728 1.64196,-1.90317 1.68443,-0.90148 11.52988,-11.18473 13.14919,-13.73389 0.66173,-1.04172 1.59804,-1.8934 2.08069,-1.89263 0.48266,0.001 1.78669,-0.44446 2.89786,-0.98939 1.11117,-0.54494 2.65674,-1.12097 3.4346,-1.28008 1.91815,-0.39234 7.76615,-6.32536 9.01297,-9.144 1.29539,-2.92845 0.98878,-3.76148 -2.86367,-7.78025 -1.73122,-1.80597 -3.29159,-3.75505 -3.46748,-4.33129 -0.40336,-1.32146 -6.30709,-7.21628 -8.21797,-8.20557 -0.78869,-0.40831 -2.07646,-1.2776 -2.8617,-1.93174 -0.78524,-0.65414 -1.70867,-1.18935 -2.05207,-1.18935 -0.34341,0 -1.29193,-0.70213 -2.10783,-1.56029 -0.8159,-0.85816 -2.50623,-2.15262 -3.7563,-2.87659 -1.25006,-0.72396 -3.18198,-2.03735 -4.29314,-2.91863 -3.55196,-2.8171 -3.97105,-2.91607 -13.75244,-3.24758 -8.62819,-0.29243 -9.28275,-0.38344 -10.41626,-1.44831 -1.1184,-1.05069 -1.8717,-1.16638 -10.00076,-1.53598 -4.8352,-0.21984 -9.246825,-0.64352 -9.803621,-0.9415 -0.556791,-0.29799 -4.300406,-0.91492 -8.319136,-1.37096 -4.018735,-0.45603 -8.773776,-1.16375 -10.566761,-1.5727 -1.792986,-0.40896 -4.698215,-0.94724 -6.456062,-1.19618 -2.202613,-0.31193 -3.465753,-0.77276 -4.063632,-1.48254 -0.656528,-0.77942 -1.850347,-1.14616 -4.908154,-1.50779 -4.904989,-0.58009 -13.074482,-3.35823 -15.648355,-5.32142 -1.036177,-0.79032 -2.19252,-2.17545 -2.56965,-3.07805 -0.58133,-1.39132 -1.01723,-1.69081 -2.864022,-1.96775 -1.198081,-0.17966 -2.823301,-0.66128 -3.611599,-1.07025 -0.788298,-0.40898 -2.652734,-0.74359 -4.14319,-0.74359 -2.648533,0 -2.733037,0.0453 -3.730339,2.00018 -0.561229,1.10011 -1.020417,2.83473 -1.020417,3.85473 0,2.00578 1.476914,4.81888 3.142454,5.98547 2.683497,1.8796 8.200172,7.81809 9.007271,9.69599 0.494262,1.15001 1.148196,2.24516 1.453187,2.43365 0.304991,0.1885 0.856985,1.0666 1.226654,1.95134 0.369669,0.88474 2.127679,3.20343 3.906689,5.15264 7.947769,8.70813 10.236636,12.45832 11.271743,18.4682 0.934479,5.42563 0.734941,5.73257 -3.841814,5.90964 -3.645553,0.14105 -5.216636,-0.19767 -7.113933,-1.53374 -0.725056,-0.51058 -0.978922,-0.5033 -1.316576,0.0377 -0.322728,0.51714 -0.867654,0.55515 -2.384735,0.16636 -1.08153,-0.27716 -3.376645,-0.65674 -5.100255,-0.84351 -1.723609,-0.18675 -3.382677,-0.6394 -3.686818,-1.00587 -0.695992,-0.83861 -4.202479,-1.61132 -9.063721,-1.9973 -2.0694,-0.16432 -4.114959,-0.60648 -4.545687,-0.98258 -0.430728,-0.3761 -1.500283,-1.04685 -2.376788,-1.49056 -1.907804,-0.96578 -3.2105389,-2.19678 -3.1885152,-3.01295 0.00883,-0.32739 0.3473462,-0.15738 0.7522482,0.37781 0.601688,0.79531 1.729113,1.05555 6.171121,1.42451 2.989215,0.24828 6.752362,0.81553 8.36255,1.26055 1.763839,0.48749 5.043446,0.82472 8.250248,0.84834 4.963467,0.0366 5.386039,-0.0389 6.262238,-1.11885 0.823245,-1.01464 1.071952,-1.07719 2.008308,-0.50507 0.923123,0.56403 1.167717,0.51943 1.795557,-0.32744 1.073063,-1.4474 0.925848,-3.35526 -0.283299,-3.67146 -0.743762,-0.1945 -1.010153,-0.68893 -1.010153,-1.87489 0,-0.92501 -0.537559,-2.33936 -1.26269,-3.32222 -0.69448,-0.94131 -1.262691,-2.0076 -1.262691,-2.36951 0,-0.36192 -0.744893,-1.51101 -1.655318,-2.55353 -0.910425,-1.0425 -1.953998,-2.46368 -2.319053,-3.15816 -1.000365,-1.9031 -5.538016,-5.20473 -8.341944,-6.06967 -1.385932,-0.42753 -2.720657,-1.20914 -3.01875,-1.76777 -0.293897,-0.55076 -0.940546,-1.61632 -1.437,-2.3679 -0.496454,-0.75158 -1.36503,-2.53959 -1.930168,-3.97336 -0.565139,-1.43377 -2.036058,-3.91752 -3.268709,-5.51944 -1.267171,-1.64678 -2.451382,-3.84811 -2.724849,-5.06522 -0.474051,-2.10985 -1.193253,-2.99266 -2.450604,-3.0081 -0.914116,-0.0112 -4.4740802,-3.35405 -5.7216517,-5.37266 -1.3285877,-2.14971 -1.0603111,-2.89815 1.5085882,-4.2087 2.4296745,-1.23953 4.3220355,-1.3046 6.8783145,-0.23652 1.048402,0.43805 2.364547,0.67659 2.924769,0.53009 0.658739,-0.17226 1.689347,0.26489 2.917259,1.23741 2.315322,1.83377 3.758849,2.32055 8.127525,2.74071 2.051901,0.19734 3.625671,0.6233 4.008884,1.08504 1.276738,1.53838 5.81103,3.3417 11.261039,4.4786 3.077652,0.64202 6.23556,1.41399 7.017572,1.71549 0.782011,0.3015 2.83388,0.54819 4.559707,0.54819 2.51284,0 3.310149,-0.20122 4.002785,-1.01016 0.475706,-0.55558 1.1805,-1.01015 1.566201,-1.01015 0.90639,0 1.576853,-1.72365 2.848716,-7.3236 1.471045,-6.47696 2.33615,-9.0406 4.637257,-13.74194 1.980273,-4.04586 2.034725,-4.30076 2.265732,-10.6066 0.130178,-3.55361 0.420011,-6.91569 0.644068,-7.47127 0.224062,-0.55558 0.646048,-2.5693 0.937755,-4.47492 0.333578,-2.17913 1.306107,-5.05963 2.620942,-7.76287 2.320719,-4.77128 3.28795,-10.48008 2.032018,-11.99338 -0.528058,-0.63627 -0.496718,-0.7701 0.180332,-0.7701 0.482737,0 0.819456,-0.41508 0.819456,-1.01016 0,-0.55558 -0.259321,-1.01015 -0.576272,-1.01015 -0.900096,0 -0.240058,-8.03456 0.830032,-10.10389 0.782859,-1.51388 0.817067,-2.17338 0.303263,-5.84623 -0.650114,-4.64721 -0.370882,-8.43559 0.995516,-13.50636 0.510576,-1.89478 1.410385,-6.78139 1.999577,-10.85914 1.187222,-8.21668 4.983895,-28.06203 6.510796,-34.03215 0.540169,-2.11204 1.142407,-6.64657 1.338311,-10.07675 0.468979,-8.21163 0.591889,-8.50951 3.511108,-8.50951 2.633135,0 5.29072,-1.16644 5.29072,-2.32215 0,-0.42953 0.625032,-1.84422 1.388961,-3.14375 l 1.38896,-2.36279 0,-33.957744 0,-33.957749 2.65802,-2.326212 c 1.61855,-1.416506 3.14908,-3.36424 3.91372,-4.980554 0.69064,-1.459888 1.71117,-3.066532 2.26785,-3.57032 0.98167,-0.888401 1.08638,-0.875569 3.47823,0.426237 3.49879,1.904277 5.76344,1.797249 7.93574,-0.375045 0.94449,-0.944493 1.71726,-2.158074 1.71726,-2.696847 0,-0.554758 0.54761,-1.229095 1.26269,-1.554908 1.23628,-0.563287 1.26269,-0.692378 1.26269,-6.171508 0,-6.507962 0.71726,-11.773389 2.11312,-15.5124037 0.93327,-2.4999136 1.09031,-2.6516504 2.74435,-2.6516504 4.76043,0 5.75333,6.2109721 3.02785,18.9403601 -0.41635,1.944544 -1.00326,8.649431 -1.30425,14.89975 -0.53202,11.047851 -1.25603,19.408677 -1.85885,21.465742 -0.16281,0.555584 -0.62618,1.386788 -1.02972,1.847119 -0.96768,1.10389 -2.62111,7.740582 -3.18896,12.800093 -1.04709,9.329627 -1.58938,21.978858 -1.01666,23.714199 1.03868,3.147251 5.85354,3.739721 10.91857,1.343541 3.26904,-1.546531 4.90514,-3.328 5.47536,-5.961862 0.61081,-2.821336 3.02541,-5.59523 5.43541,-6.244172 2.19258,-0.590399 5.75293,-0.389136 6.48662,0.366685 0.22352,0.23027 0.63095,2.059338 0.9054,4.064597 0.467,3.412103 0.65566,3.80435 2.9417,6.116044 2.57932,2.608268 4.19554,3.602438 7.49347,4.609438 4.34516,1.32676 10.76944,4.67699 11.06252,5.76905 0.15835,0.59001 0.29101,4.17932 0.2948,7.97623 0.004,3.79692 0.14485,7.26301 0.31347,7.70241 0.23433,0.61066 1.05086,0.79893 3.46504,0.79893 3.89072,0 7.84514,0.51387 7.84514,1.01947 0,0.20739 -1.76145,0.53746 -3.91434,0.73349 -6.87303,0.62581 -10.34182,3.05564 -11.02041,7.71962 -0.19179,1.31819 -0.67353,3.03638 -1.07053,3.81819 -0.62967,1.24002 -0.62365,1.72361 0.0471,3.78807 0.42291,1.30163 0.92319,3.61666 1.11173,5.14451 0.44594,3.61385 0.80358,4.51042 2.88898,7.24245 0.98782,1.29412 2.00912,3.43436 2.36963,4.96583 0.77964,3.31197 2.04028,5.87427 3.6109,7.33932 1.44257,1.34561 4.49233,2.67576 6.13494,2.67576 0.66035,0 1.59165,0.43206 2.06955,0.96014 1.88716,2.08529 6.78357,1.72969 9.51544,-0.69106 1.71884,-1.52309 1.71663,-2.31831 -0.0162,-5.82492 -1.08096,-2.18747 -1.87281,-3.04757 -3.7254,-4.04655 -1.29396,-0.69775 -2.78921,-1.66371 -3.32276,-2.14658 -0.53357,-0.48286 -1.64746,-0.87794 -2.47531,-0.87794 -0.82786,0 -1.91814,-0.30195 -2.42285,-0.671 -0.86644,-0.63355 -0.83983,-0.73222 0.47666,-1.76777 0.76687,-0.60321 1.87504,-1.09816 2.46261,-1.09987 0.58757,-0.002 1.63652,-0.31552 2.331,-0.69736 2.31901,-1.27502 5.33914,-3.07591 7.09788,-4.23243 2.13149,-1.40164 7.57255,-3.14832 9.80727,-3.14832 2.66185,0 4.11599,-1.5427 4.72774,-5.01566 0.2915,-1.65484 0.93099,-3.6208 1.42109,-4.36878 0.97317,-1.48526 3.4647,-2.73739 5.44694,-2.73739 0.69258,0 1.66583,-0.42375 2.16279,-0.94166 0.49696,-0.51792 1.47177,-1.23765 2.16625,-1.59941 0.69448,-0.36177 2.66669,-1.73321 4.38268,-3.04766 5.2833,-4.04699 3.62374,-3.91475 30.97266,-2.46817 15.54417,0.82218 16.09051,0.4794 12.97241,-8.13885 -2.15444,-5.95475 -3.12038,-10.18091 -4.41122,-19.299693 -0.55928,-3.950924 -1.34162,-8.888135 -1.73853,-10.971575 -0.39691,-2.08344 -0.73067,-4.679314 -0.7417,-5.768607 -0.011,-1.089293 -0.37676,-2.374702 -0.81275,-2.856464 -0.72186,-0.797647 -0.67965,-1.658782 0.47237,-9.636219 0.6958,-4.81816 1.63419,-11.942271 2.08532,-15.831358 1.04401,-9.000186 1.51754,-10.85914 2.76613,-10.85914 1.18787,0 1.36827,0.638994 1.78239,6.313453 0.50168,6.874169 1.63064,11.30485 3.30793,12.982137 0.7769,0.776893 1.78,1.412537 2.22912,1.412537 1.3186,0 4.64014,1.888718 5.7072,3.245267 0.63277,0.80444 1.11056,2.471555 1.33434,4.655868 0.20409,1.991996 0.96691,4.811423 1.83994,6.800554 0.82023,1.868808 1.49132,3.786638 1.49132,4.261849 0,0.475206 -0.71155,2.107663 -1.58121,3.627675 -1.26764,2.215598 -1.57619,3.321442 -1.55593,5.57629 0.0229,2.554726 0.1874,2.961161 1.79351,4.432544 3.45422,3.16448 5.36944,8.627402 6.63229,18.917732 1.00747,8.20932 1.47143,10.78818 3.63469,20.20305 2.74783,11.95894 3.32993,12.80168 9.17084,13.27712 1.47915,0.1204 3.01859,0.54814 3.42099,0.95053 0.42615,0.42615 0.94043,2.56923 1.23172,5.13281 0.28273,2.48823 1.07727,5.84293 1.828,7.71823 l 1.3279,3.31704 -1.32879,1.23213 c -0.73083,0.67766 -1.47605,1.81887 -1.65605,2.53601 -0.61822,2.4632 0.17854,11.90535 1.26398,14.97903 0.56878,1.61064 1.19036,4.65242 1.38131,6.75952 0.22488,2.48173 0.7571,4.60209 1.51105,6.02006 0.99598,1.8732 1.21104,3.2296 1.49082,9.40292 0.28313,6.24718 0.49138,7.53826 1.55398,9.6338 l 1.22703,2.41984 -0.0449,17.0256 c -0.0508,19.27461 -0.47001,26.41812 -1.68083,28.64235 -0.45367,0.83338 -0.82625,2.3342 -0.82797,3.33517 -0.002,1.00097 -0.14905,3.21626 -0.32743,4.92287 -0.27037,2.58686 -0.42556,2.96446 -0.93305,2.27042 -0.96182,-1.31537 -1.42164,-0.0198 -1.63029,4.59346 -0.24908,5.50798 -0.57801,7.35397 -1.31034,7.35397 -0.3392,0 -1.36443,1.25007 -2.27828,2.77792 -0.91385,1.52786 -1.94495,2.77792 -2.29134,2.77792 -0.34639,0 -1.52689,0.65859 -2.62334,1.46353 -1.09644,0.80494 -2.95481,1.72157 -4.1297,2.03697 -1.5064,0.40439 -2.62186,1.17783 -3.78368,2.62355 -2.007,2.49744 -5.27387,4.76678 -7.8675,5.46518 -5.7317,1.54338 -12.27333,8.66523 -14.01148,15.25424 -0.77876,2.95213 -1.29938,3.44239 -3.66725,3.45338 -0.91662,0.004 -2.29212,0.33121 -3.05666,0.72656 -1.91745,0.99156 -5.52691,5.00474 -5.92391,6.58651 -0.18003,0.71727 0.074,5.55666 0.56457,10.75421 0.68735,7.28298 0.82031,11.83571 0.57976,19.85312 -0.19486,6.4942 -0.11934,11.10128 0.20098,12.26138 0.94073,3.40705 1.11553,3.43927 17.71644,3.26609 14.52008,-0.15148 14.85718,-0.17839 16.71701,-1.33473 1.53643,-0.95526 2.28809,-1.11423 3.94486,-0.83433 1.72262,0.29104 2.55983,0.0827 5.28652,-1.31587 3.0678,-1.57347 4.30699,-1.7348 3.51788,-0.45798 -0.75007,1.21364 -4.50558,3.53578 -5.71827,3.53578 -0.70038,0 -1.68589,0.37328 -2.19003,0.82952 -0.60246,0.54522 -2.77991,1.05543 -6.35322,1.48863 -2.99013,0.3625 -6.57303,0.87503 -7.96199,1.13893 -1.38896,0.26392 -8.4062,0.75748 -15.59386,1.09681 -12.02964,0.56792 -16.78294,0.48755 -18.06608,-0.30547 -0.27152,-0.16781 0.75335,-1.61247 2.27749,-3.21037 4.25292,-4.45874 4.25166,-6.95514 -0.006,-12.75577 -2.38659,-3.25119 -3.19808,-6.74046 -3.30168,-14.19668 -0.0722,-5.19431 -0.2012,-6.02721 -0.99996,-6.45469 -1.5804,-0.8458 -2.29077,-2.97666 -4.16615,-12.49686 -1.97576,-10.02977 -2.51079,-11.49171 -5.25331,-14.35425 -2.29784,-2.39841 -4.4582,-2.51572 -5.27929,-0.28669 -0.18351,0.49816 -0.98347,0.9161 -1.93353,1.01015 -2.65306,0.26265 -3.58681,2.07351 -4.04273,7.84021 -0.58769,7.43341 0.23046,15.86292 2.08557,21.48787 1.16043,3.51858 1.79303,6.9773 2.56161,14.00556 0.56134,5.1332 1.34749,10.88699 1.747,12.78619 0.89421,4.25094 0.93622,8.47918 0.095,9.56411 -0.4735,0.6107 -1.7231,0.85582 -4.99809,0.98042 -3.28004,0.12479 -4.60972,0.3861 -5.34308,1.05002 -1.06218,0.96161 -1.90236,1.18865 -1.40185,0.37881 0.71166,-1.1515 -2.2006,-0.3815 -4.93085,1.30371 -2.7691,1.70918 -3.27029,1.83349 -9.10134,2.25737 -3.39397,0.24672 -7.30728,0.43503 -8.69624,0.41847 l -2.52538,-0.0301 3.53553,-0.65865 3e-5,-1e-5 z m -69.03718,-90.07654 c 0.0904,-0.91517 -0.0775,-1.6026 -0.39131,-1.6026 -0.6806,0 -1.65274,2.43091 -1.23952,3.0995 0.57328,0.92759 1.47294,0.10181 1.63083,-1.4969 z m 99.08921,-98.04777 c 5.97253,-0.56106 14.61443,-1.21713 19.20422,-1.45792 12.09374,-0.63448 14.18439,-1.7435 14.91207,-7.91039 0.19667,-1.66675 0.66956,-3.6442 1.05086,-4.39434 0.47059,-0.9258 0.69327,-3.26463 0.69327,-7.28151 0,-3.2547 -0.11758,-5.80007 -0.26128,-5.65636 -0.1437,0.1437 -0.45691,1.60211 -0.69602,3.24091 l -0.43475,2.97962 -0.0616,-3.00331 c -0.0506,-2.46736 0.17101,-3.33895 1.24185,-4.88416 1.15946,-1.67312 1.305,-2.37841 1.31768,-6.38559 0.016,-5.0413 -0.58683,-6.7462 -3.14681,-8.90028 -2.50934,-2.11148 -4.36515,-1.57597 -6.06147,1.7491 -0.56904,1.11541 -1.37369,2.15813 -1.7881,2.31716 -0.41441,0.15902 -1.06959,0.90044 -1.45596,1.64759 -1.06405,2.05765 -3.64549,4.37225 -6.60362,5.92103 -2.25425,1.18026 -2.78023,1.28969 -3.46545,0.721 -1.15142,-0.95559 -1.04764,-5.70785 0.20232,-9.26421 0.55558,-1.58073 1.01015,-3.43171 1.01015,-4.11329 0,-2.68671 -3.18976,-3.84489 -7.95409,-2.88808 -4.64196,0.93224 -4.91598,1.26815 -5.60443,6.87023 -0.61567,5.00983 -1.51009,7.86595 -2.96767,9.47656 -0.7442,0.82233 -1.40997,0.88346 -6.42046,0.58959 -7.35127,-0.43117 -8.81746,0.005 -12.71572,3.78338 -4.18999,4.06107 -5.75985,7.9011 -6.12989,14.99436 -0.27555,5.28198 0.0895,10.03866 0.86701,11.29666 1.05546,1.70778 10.71887,1.91898 25.26788,0.55225 z m -86.1155,-6.67725 c 0.83338,-0.4372 3.10622,-1.06432 5.05076,-1.39359 5.27538,-0.8933 11.36422,-3.97799 11.36422,-5.75725 0,-0.2726 0.53817,-1.20121 1.19593,-2.06358 0.65777,-0.86238 1.36403,-2.36118 1.56948,-3.33068 0.20545,-0.96949 1.06468,-2.40571 1.90941,-3.1916 l 1.53586,-1.42889 -0.31074,-5.43114 c -0.17091,-2.98713 -0.45621,-5.81022 -0.634,-6.27353 -0.37956,-0.9891 -1.53526,-1.1174 -1.90098,-0.21104 -0.14012,0.34724 -0.2727,-1.36452 -0.29463,-3.80392 -0.0306,-3.39677 0.12837,-4.49983 0.67869,-4.711 1.10854,-0.4254 1.34147,-1.60099 0.48659,-2.45587 -0.57171,-0.57171 -1.88627,-0.77223 -5.06251,-0.77223 -4.95445,0 -5.60296,-0.25806 -9.04311,-3.59848 -3.38516,-3.28703 -4.96234,-3.71596 -8.18075,-2.22486 -3.59516,1.66567 -4.36394,2.93411 -5.5962,9.23345 -0.59091,3.02079 -1.46224,6.38717 -1.93628,7.48084 l -0.86188,1.9885 -0.38539,-2.02031 c -0.21197,-1.11117 -0.39849,-3.41565 -0.4145,-5.12108 -0.0213,-2.26867 -0.28821,-3.42074 -0.99464,-4.29315 -0.93912,-1.15977 -1.17837,-1.19237 -8.74957,-1.19237 -7.46906,0 -7.85949,0.0511 -9.64857,1.26269 -2.53675,1.71794 -3.69745,4.43389 -4.08942,9.56895 -0.2028,2.65679 -0.72498,5.13325 -1.3845,6.56599 -0.87061,1.89131 -1.10205,3.60282 -1.30159,9.62534 -0.37688,11.37472 0.47762,12.43409 10.98689,13.62102 2.91682,0.32943 5.75787,0.67619 6.31345,0.77058 0.55559,0.0944 4.87399,0.12223 9.59645,0.0619 6.66986,-0.0853 8.92449,-0.28717 10.10153,-0.90466 l 0,0 z m -14.1699,-43.03253 c 1.74987,-1.14655 3.7942,-4.3382 4.13877,-6.4615 0.98004,-6.03928 -10.78455,-8.10906 -14.10846,-2.48215 -1.86431,3.15603 -0.64779,8.08455 2.32772,9.43041 1.99934,0.90432 5.89791,0.656 7.64197,-0.48676 l 0,0 z m 30.10891,0.36987 c 1.27218,-0.50903 2.24936,-1.30029 2.53561,-2.05319 0.52632,-1.38434 0.5455,-11.87857 0.0251,-13.73834 -0.59488,-2.12595 -1.65946,-2.35803 -4.85925,-1.05933 -9.06836,3.68058 -11.24298,9.74906 -5.53791,15.45413 2.52771,2.52771 4.24491,2.83377 7.83645,1.39673 l 0,0 z m -33.4789,-129.772979 0.13778,-1.476278 -1.01896,1.189033 c -0.56042,0.653968 -0.8857,1.40464 -0.72284,1.668159 0.5509,0.891357 1.46543,0.104021 1.60402,-1.380914 z"
       id="path3230"
       inkscape:connector-curvature="0"
       transform="translate(211.73059,335.17785)" />
  </g>
</svg>
